<?xml version="1.0" standalone="no"?>
<!DOCTYPE svg PUBLIC "-//W3C//DTD SVG 20010904//EN"
 "http://www.w3.org/TR/2001/REC-SVG-20010904/DTD/svg10.dtd">
<svg version="1.0" xmlns="http://www.w3.org/2000/svg"
 width="512.000000pt" height="512.000000pt" viewBox="0 0 512.000000 512.000000"
 preserveAspectRatio="xMidYMid meet">
<metadata>
Created by potrace 1.11, written by Peter Selinger 2001-2013
</metadata>
<g transform="translate(0.000000,512.000000) scale(0.100000,-0.100000)"
fill="#000000" stroke="none">
<path d="M1364 5108 c-10 -13 -10 -27 -1 -123 25 -250 109 -440 265 -602 164
-171 451 -307 712 -338 30 -3 66 -8 80 -10 46 -8 52 4 52 116 1 208 -23 328
-98 484 -93 196 -293 341 -584 426 -153 45 -407 73 -426 47z"/>
<path d="M2524 5087 c-67 -34 -224 -128 -224 -134 0 -3 29 -32 65 -65 75 -69
119 -137 170 -263 20 -50 40 -94 44 -98 4 -4 25 27 46 70 21 43 41 80 44 83 4
3 18 24 33 46 33 51 101 121 151 154 20 14 36 29 34 34 -2 7 -201 127 -248
149 -8 4 -28 16 -45 26 -30 18 -31 18 -70 -2z"/>
<path d="M3261 4929 c-134 -30 -242 -88 -332 -178 -181 -182 -242 -320 -264
-591 -4 -47 -9 -89 -12 -93 -3 -4 0 -14 6 -21 20 -24 198 22 322 84 219 110
378 306 429 530 14 60 23 250 14 275 -8 20 -56 18 -163 -6z"/>
<path d="M3541 4528 c-6 -7 -29 -49 -52 -92 -84 -166 -208 -319 -319 -392 -23
-16 -48 -32 -54 -36 -219 -149 -570 -201 -871 -128 -315 76 -557 213 -788 445
-47 47 -91 85 -98 85 -8 0 -27 -8 -44 -18 -16 -10 -50 -30 -75 -44 -25 -14
-90 -51 -145 -83 -55 -32 -167 -96 -248 -143 -162 -92 -160 -89 -87 -130 43
-24 148 -84 215 -124 28 -16 58 -32 68 -35 9 -3 17 -9 17 -14 0 -5 4 -9 9 -9
9 0 94 -47 156 -85 11 -7 25 -13 30 -15 6 -1 21 -10 35 -20 14 -9 72 -44 130
-77 58 -33 125 -72 150 -87 25 -14 81 -46 125 -71 44 -26 94 -54 110 -64 17
-10 50 -29 75 -43 25 -14 176 -101 335 -193 160 -93 302 -174 318 -182 32 -17
-1 -35 602 315 33 19 74 42 90 52 55 31 438 252 570 328 72 41 150 86 175 100
25 13 50 27 55 32 6 4 30 19 55 32 25 14 85 48 133 77 49 28 93 51 98 51 5 0
9 3 9 8 0 4 18 16 40 26 72 35 70 38 -47 105 -59 34 -115 66 -123 71 -104 62
-172 100 -180 100 -5 0 -10 5 -10 10 0 6 -5 10 -10 10 -8 0 -291 161 -407 231
-25 16 -34 17 -42 7z"/>
<path d="M506 3898 c-3 -13 -4 -204 -4 -425 1 -356 3 -404 17 -416 9 -7 129
-78 266 -157 138 -79 314 -181 393 -227 79 -46 145 -83 146 -83 2 0 34 -18 70
-40 36 -22 70 -40 76 -40 5 0 10 -4 10 -10 0 -5 5 -10 10 -10 6 0 40 -18 76
-40 36 -22 68 -40 70 -40 3 0 21 -11 42 -23 20 -13 57 -35 82 -49 77 -43 378
-216 537 -309 84 -49 156 -89 161 -89 4 0 8 192 8 427 l-1 428 -115 67 c-63
38 -122 72 -130 76 -34 16 -226 126 -240 137 -8 7 -44 28 -80 47 -36 20 -312
178 -615 353 -302 175 -570 329 -595 343 -25 13 -49 28 -55 32 -5 4 -36 21
-67 39 l-57 32 -5 -23z"/>
<path d="M4585 3906 c-11 -6 -43 -26 -72 -43 -29 -18 -53 -30 -53 -26 0 3 -8
-1 -17 -9 -16 -13 -57 -37 -215 -127 -74 -41 -208 -118 -228 -130 -8 -6 -80
-47 -160 -93 -80 -45 -153 -87 -162 -93 -9 -5 -29 -17 -45 -26 -28 -15 -297
-171 -593 -342 -85 -49 -171 -99 -190 -110 -147 -83 -190 -110 -192 -120 -6
-42 -3 -847 3 -847 7 0 210 116 679 388 91 52 185 106 210 120 25 14 61 35 80
47 19 12 42 24 50 28 8 4 22 11 30 17 14 9 262 152 355 205 22 12 96 55 165
95 69 39 177 102 240 138 63 36 122 71 131 79 14 12 16 60 16 434 0 231 -3
421 -6 423 -3 2 -15 -1 -26 -8z"/>
<path d="M696 2723 c-10 -10 -6 -1377 4 -1410 42 -137 56 -175 82 -223 49 -88
113 -164 200 -236 26 -22 262 -164 272 -164 3 0 30 -16 60 -35 30 -19 58 -35
62 -35 4 0 15 -6 23 -14 9 -7 41 -27 71 -43 93 -51 134 -75 163 -95 15 -11 27
-16 27 -12 0 4 8 0 18 -8 9 -8 94 -59 187 -112 94 -54 177 -101 185 -106 8 -5
51 -30 95 -55 44 -25 87 -50 95 -55 119 -70 214 -120 219 -115 11 12 9 404 -3
419 -12 16 -652 386 -667 386 -5 0 -9 5 -9 10 0 6 -5 10 -10 10 -6 0 -40 18
-76 40 -36 22 -68 40 -69 40 -2 0 -70 38 -150 85 -81 47 -149 85 -151 85 -3 0
-31 16 -62 36 -65 40 -125 102 -152 154 -42 83 -44 104 -45 453 0 186 3 343 6
349 7 11 26 4 99 -39 108 -63 1062 -610 1100 -631 25 -14 76 -43 113 -65 37
-22 71 -36 75 -33 12 13 10 405 -2 415 -9 7 -1432 832 -1576 913 -19 11 -65
38 -102 59 -73 43 -72 42 -82 32z"/>
<path d="M4384 2716 c-11 -7 -39 -24 -64 -38 -25 -14 -157 -90 -295 -170 -137
-80 -374 -216 -525 -303 -151 -87 -277 -160 -280 -162 -3 -3 -5 -97 -6 -209
-1 -185 1 -204 16 -204 10 0 134 67 276 148 142 82 279 160 304 174 25 14 85
49 135 77 75 44 91 50 100 38 12 -17 13 -627 1 -697 -17 -93 -103 -211 -187
-254 -19 -10 -43 -23 -54 -29 -11 -7 -74 -43 -140 -80 -66 -37 -127 -72 -135
-77 -52 -32 -141 -81 -146 -80 -4 1 -10 -3 -13 -8 -3 -5 -40 -28 -81 -51 -41
-23 -82 -46 -90 -51 -174 -102 -170 -102 -170 -12 -1 37 -2 319 -3 627 -2 490
-4 560 -17 561 -8 0 -22 -5 -30 -11 -8 -7 -73 -45 -145 -85 -71 -40 -142 -81
-156 -91 l-25 -18 0 -850 c1 -467 4 -852 8 -856 4 -4 22 2 40 13 18 11 49 29
68 40 19 10 75 42 124 71 49 28 93 51 97 51 5 0 9 3 9 8 0 4 10 12 23 18 26
12 490 279 527 302 14 9 28 17 32 17 4 0 13 6 19 12 7 7 16 13 20 13 4 0 64
34 134 75 69 41 128 75 131 75 2 0 33 18 68 40 35 22 68 40 75 40 6 0 11 5 11
10 0 6 5 10 12 10 14 0 112 74 153 115 113 114 190 263 215 415 5 30 9 355 9
721 1 712 2 697 -45 665z"/>
</g>
</svg>
