<?xml version="1.0" encoding="utf-8"?>
<!-- Generator: Adobe Illustrator 23.1.0, SVG Export Plug-In . SVG Version: 6.00 Build 0)  -->
<svg version="1.1" xmlns="http://www.w3.org/2000/svg" xmlns:xlink="http://www.w3.org/1999/xlink" x="0px" y="0px"
	 viewBox="0 0 1100 1368" style="enable-background:new 0 0 1100 1368;" xml:space="preserve">
<style type="text/css">
	.st0{display:none;}
	.st1{display:inline;}
	.st2{clip-path:url(#SVGID_2_);}
	.st3{fill:none;stroke:#000000;stroke-miterlimit:10;}
	.st4{fill:url(#SVGID_3_);stroke:#000000;stroke-miterlimit:10;}
	.st5{fill:#2D53FE;}
	.st6{fill:url(#SVGID_4_);stroke:#000000;stroke-width:10;stroke-miterlimit:10;}
	.st7{fill:url(#SVGID_5_);stroke:#000000;stroke-width:10;stroke-miterlimit:10;}
	.st8{fill:url(#SVGID_6_);stroke:#000000;stroke-width:10;stroke-miterlimit:10;}
	.st9{fill:url(#SVGID_7_);stroke:#000000;stroke-width:10;stroke-miterlimit:10;}
	.st10{fill:url(#SVGID_8_);stroke:#000000;stroke-width:10;stroke-miterlimit:10;}
	.st11{fill:url(#SVGID_9_);stroke:#000000;stroke-width:10;stroke-miterlimit:10;}
	.st12{fill:url(#SVGID_10_);stroke:#000000;stroke-width:10;stroke-miterlimit:10;}
	.st13{fill:url(#SVGID_11_);stroke:#000000;stroke-width:10;stroke-miterlimit:10;}
	.st14{fill:url(#SVGID_12_);stroke:#000000;stroke-width:10;stroke-miterlimit:10;}
	.st15{fill:url(#SVGID_13_);stroke:#000000;stroke-width:10;stroke-miterlimit:10;}
	.st16{fill:url(#SVGID_14_);stroke:#000000;stroke-width:10;stroke-miterlimit:10;}
	.st17{fill:url(#SVGID_15_);stroke:#000000;stroke-width:10;stroke-miterlimit:10;}
	.st18{fill:url(#SVGID_16_);stroke:#000000;stroke-width:10;stroke-miterlimit:10;}
</style>
<g id="Слой_1" class="st0">
	<g class="st1">
		<defs>
			<rect id="SVGID_1_" x="-450.5" y="-317.5" width="2000" height="2000"/>
		</defs>
		<clipPath id="SVGID_2_">
			<use xlink:href="#SVGID_1_"  style="overflow:visible;"/>
		</clipPath>
		<g class="st2">
			<g>
				<line class="st3" x1="2050" y1="-1010" x2="2050" y2="2374"/>
			</g>
			<g>
				<line class="st3" x1="1950" y1="-1010" x2="1950" y2="2374"/>
			</g>
			<g>
				<line class="st3" x1="1850" y1="-1010" x2="1850" y2="2374"/>
			</g>
			<g>
				<line class="st3" x1="1750" y1="-1010" x2="1750" y2="2374"/>
			</g>
			<g>
				<line class="st3" x1="1650" y1="-1010" x2="1650" y2="2374"/>
			</g>
			<g>
				<line class="st3" x1="1550" y1="-1010" x2="1550" y2="2374"/>
			</g>
			<g>
				<line class="st3" x1="1450" y1="-1010" x2="1450" y2="2374"/>
			</g>
			<g>
				<line class="st3" x1="1350" y1="-1010" x2="1350" y2="2374"/>
			</g>
			<g>
				<line class="st3" x1="1250" y1="-1010" x2="1250" y2="2374"/>
			</g>
			<g>
				<line class="st3" x1="1150" y1="-1010" x2="1150" y2="2374"/>
			</g>
			<g>
				<line class="st3" x1="1050" y1="-1010" x2="1050" y2="2374"/>
			</g>
			<g>
				<line class="st3" x1="950" y1="-1010" x2="950" y2="2374"/>
			</g>
			<g>
				<line class="st3" x1="850" y1="-1010" x2="850" y2="2374"/>
			</g>
			<g>
				<line class="st3" x1="750" y1="-1010" x2="750" y2="2374"/>
			</g>
			<g>
				<line class="st3" x1="650" y1="-1010" x2="650" y2="2374"/>
			</g>
			<g>
				<line class="st3" x1="550" y1="-1010" x2="550" y2="2374"/>
			</g>
			<g>
				<line class="st3" x1="450" y1="-1010" x2="450" y2="2374"/>
			</g>
			<g>
				<line class="st3" x1="350" y1="-1010" x2="350" y2="2374"/>
			</g>
			<g>
				<line class="st3" x1="250" y1="-1010" x2="250" y2="2374"/>
			</g>
			<g>
				<line class="st3" x1="150" y1="-1010" x2="150" y2="2374"/>
			</g>
			<g>
				<line class="st3" x1="50" y1="-1010" x2="50" y2="2374"/>
			</g>
			<g>
				<line class="st3" x1="-50" y1="-1010" x2="-50" y2="2374"/>
			</g>
			<g>
				<line class="st3" x1="-150" y1="-1010" x2="-150" y2="2374"/>
			</g>
			<g>
				<line class="st3" x1="-250" y1="-1010" x2="-250" y2="2374"/>
			</g>
			<g>
				<line class="st3" x1="-350" y1="-1010" x2="-350" y2="2374"/>
			</g>
			<g>
				<line class="st3" x1="-450" y1="-1010" x2="-450" y2="2374"/>
			</g>
			<g>
				<line class="st3" x1="-550" y1="-1010" x2="-550" y2="2374"/>
			</g>
			<g>
				<line class="st3" x1="-650" y1="-1010" x2="-650" y2="2374"/>
			</g>
			<g>
				<line class="st3" x1="-750" y1="-1010" x2="-750" y2="2374"/>
			</g>
			<g>
				<line class="st3" x1="-850" y1="-1010" x2="-850" y2="2374"/>
			</g>
			<g>
				<line class="st3" x1="-950" y1="-1010" x2="-950" y2="2374"/>
			</g>
		</g>
		<g class="st2">
			<line class="st3" x1="2765.31" y1="1135.04" x2="-165.31" y2="2827.04"/>
		</g>
		<g class="st2">
			<line class="st3" x1="2715.31" y1="1048.44" x2="-215.31" y2="2740.44"/>
		</g>
		<g class="st2">
			<line class="st3" x1="2665.31" y1="961.83" x2="-265.31" y2="2653.83"/>
		</g>
		<g class="st2">
			<line class="st3" x1="2615.31" y1="875.23" x2="-315.31" y2="2567.23"/>
		</g>
		<g class="st2">
			<line class="st3" x1="2565.31" y1="788.63" x2="-365.31" y2="2480.63"/>
		</g>
		<g class="st2">
			<line class="st3" x1="2515.31" y1="702.03" x2="-415.31" y2="2394.03"/>
		</g>
		<g class="st2">
			<line class="st3" x1="2465.31" y1="615.42" x2="-465.31" y2="2307.42"/>
		</g>
		<g class="st2">
			<line class="st3" x1="2415.31" y1="528.82" x2="-515.32" y2="2220.82"/>
		</g>
		<g class="st2">
			<line class="st3" x1="2365.31" y1="442.22" x2="-565.32" y2="2134.22"/>
		</g>
		<g class="st2">
			<line class="st3" x1="2315.31" y1="355.62" x2="-615.32" y2="2047.62"/>
		</g>
		<g class="st2">
			<line class="st3" x1="2265.31" y1="269.01" x2="-665.32" y2="1961.01"/>
		</g>
		<g class="st2">
			<line class="st3" x1="2215.31" y1="182.41" x2="-715.32" y2="1874.41"/>
		</g>
		<g class="st2">
			<line class="st3" x1="2165.31" y1="95.81" x2="-765.32" y2="1787.81"/>
		</g>
		<g class="st2">
			<line class="st3" x1="2115.31" y1="9.21" x2="-815.32" y2="1701.21"/>
		</g>
		<g class="st2">
			<line class="st3" x1="2065.31" y1="-77.4" x2="-865.32" y2="1614.6"/>
		</g>
		<g class="st2">
			<line class="st3" x1="2015.31" y1="-164" x2="-915.32" y2="1528"/>
		</g>
		<g class="st2">
			<line class="st3" x1="1965.31" y1="-250.6" x2="-965.32" y2="1441.4"/>
		</g>
		<g class="st2">
			<line class="st3" x1="1915.31" y1="-337.21" x2="-1015.32" y2="1354.79"/>
		</g>
		<g class="st2">
			<line class="st3" x1="1865.31" y1="-423.81" x2="-1065.31" y2="1268.19"/>
		</g>
		<g class="st2">
			<line class="st3" x1="1815.31" y1="-510.41" x2="-1115.31" y2="1181.59"/>
		</g>
		<g class="st2">
			<line class="st3" x1="1765.31" y1="-597.01" x2="-1165.31" y2="1094.99"/>
		</g>
		<g class="st2">
			<line class="st3" x1="1715.31" y1="-683.62" x2="-1215.31" y2="1008.38"/>
		</g>
		<g class="st2">
			<line class="st3" x1="1665.31" y1="-770.22" x2="-1265.31" y2="921.78"/>
		</g>
		<g class="st2">
			<line class="st3" x1="1615.31" y1="-856.82" x2="-1315.31" y2="835.18"/>
		</g>
		<g class="st2">
			<line class="st3" x1="1565.31" y1="-943.42" x2="-1365.31" y2="748.58"/>
		</g>
		<g class="st2">
			<line class="st3" x1="1515.31" y1="-1030.03" x2="-1415.31" y2="661.97"/>
		</g>
		<g class="st2">
			<line class="st3" x1="1465.31" y1="-1116.63" x2="-1465.31" y2="575.37"/>
		</g>
		<g class="st2">
			<line class="st3" x1="1415.31" y1="-1203.23" x2="-1515.31" y2="488.77"/>
		</g>
		<g class="st2">
			<line class="st3" x1="1365.31" y1="-1289.83" x2="-1565.31" y2="402.17"/>
		</g>
		<g class="st2">
			<line class="st3" x1="1315.31" y1="-1376.44" x2="-1615.31" y2="315.56"/>
		</g>
		<g class="st2">
			<line class="st3" x1="1265.31" y1="-1463.04" x2="-1665.31" y2="228.96"/>
		</g>
		<g class="st2">
			<line class="st3" x1="1265.31" y1="2827.04" x2="-1665.31" y2="1135.04"/>
		</g>
		<g class="st2">
			<line class="st3" x1="1315.31" y1="2740.44" x2="-1615.31" y2="1048.44"/>
		</g>
		<g class="st2">
			<line class="st3" x1="1365.31" y1="2653.83" x2="-1565.31" y2="961.83"/>
		</g>
		<g class="st2">
			<line class="st3" x1="1415.31" y1="2567.23" x2="-1515.31" y2="875.23"/>
		</g>
		<g class="st2">
			<line class="st3" x1="1465.31" y1="2480.63" x2="-1465.31" y2="788.63"/>
		</g>
		<g class="st2">
			<line class="st3" x1="1515.31" y1="2394.03" x2="-1415.31" y2="702.03"/>
		</g>
		<g class="st2">
			<line class="st3" x1="1565.31" y1="2307.42" x2="-1365.31" y2="615.42"/>
		</g>
		<g class="st2">
			<line class="st3" x1="1615.31" y1="2220.82" x2="-1315.31" y2="528.82"/>
		</g>
		<g class="st2">
			<line class="st3" x1="1665.31" y1="2134.22" x2="-1265.31" y2="442.22"/>
		</g>
		<g class="st2">
			<line class="st3" x1="1715.31" y1="2047.62" x2="-1215.31" y2="355.62"/>
		</g>
		<g class="st2">
			<line class="st3" x1="1765.31" y1="1961.01" x2="-1165.31" y2="269.01"/>
		</g>
		<g class="st2">
			<linearGradient id="SVGID_3_" gradientUnits="userSpaceOnUse" x1="-1115.3149" y1="1028.4102" x2="1815.3149" y2="1028.4102">
				<stop  offset="0" style="stop-color:#FFFFFF"/>
				<stop  offset="1" style="stop-color:#000000"/>
			</linearGradient>
			<line class="st4" x1="1815.31" y1="1874.41" x2="-1115.31" y2="182.41"/>
		</g>
		<g class="st2">
			<line class="st3" x1="1865.31" y1="1787.81" x2="-1065.31" y2="95.81"/>
		</g>
		<g class="st2">
			<line class="st3" x1="1915.31" y1="1701.21" x2="-1015.32" y2="9.21"/>
		</g>
		<g class="st2">
			<line class="st3" x1="1965.31" y1="1614.6" x2="-965.32" y2="-77.4"/>
		</g>
		<g class="st2">
			<line class="st3" x1="2015.31" y1="1528" x2="-915.32" y2="-164"/>
		</g>
		<g class="st2">
			<line class="st3" x1="2065.31" y1="1441.4" x2="-865.32" y2="-250.6"/>
		</g>
		<g class="st2">
			<line class="st3" x1="2115.31" y1="1354.79" x2="-815.32" y2="-337.21"/>
		</g>
		<g class="st2">
			<line class="st3" x1="2165.31" y1="1268.19" x2="-765.32" y2="-423.81"/>
		</g>
		<g class="st2">
			<line class="st3" x1="2215.31" y1="1181.59" x2="-715.31" y2="-510.41"/>
		</g>
		<g class="st2">
			<line class="st3" x1="2265.31" y1="1094.99" x2="-665.32" y2="-597.01"/>
		</g>
		<g class="st2">
			<line class="st3" x1="2315.31" y1="1008.38" x2="-615.32" y2="-683.62"/>
		</g>
		<g class="st2">
			<line class="st3" x1="2365.31" y1="921.78" x2="-565.32" y2="-770.22"/>
		</g>
		<g class="st2">
			<line class="st3" x1="2415.31" y1="835.18" x2="-515.32" y2="-856.82"/>
		</g>
		<g class="st2">
			<line class="st3" x1="2465.31" y1="748.58" x2="-465.31" y2="-943.42"/>
		</g>
		<g class="st2">
			<line class="st3" x1="2515.31" y1="661.97" x2="-415.31" y2="-1030.03"/>
		</g>
		<g class="st2">
			<line class="st3" x1="2565.31" y1="575.37" x2="-365.31" y2="-1116.63"/>
		</g>
		<g class="st2">
			<line class="st3" x1="2615.31" y1="488.77" x2="-315.31" y2="-1203.23"/>
		</g>
		<g class="st2">
			<line class="st3" x1="2665.31" y1="402.17" x2="-265.31" y2="-1289.83"/>
		</g>
		<g class="st2">
			<line class="st3" x1="2715.31" y1="315.56" x2="-215.31" y2="-1376.44"/>
		</g>
		<g class="st2">
			<line class="st3" x1="2765.31" y1="228.96" x2="-165.31" y2="-1463.04"/>
		</g>
	</g>
</g>
<g id="Слой_2">
	<g>
		<path class="st5" d="M520.66,618.8c2.38,1.37,4.33,4.75,4.33,7.5l0,220.94c0,2.75-1.95,3.88-4.33,2.5L4.33,552.29
			C1.95,550.92,0,547.55,0,544.8l0-220.93c0-2.75,1.95-3.88,4.33-2.5L520.66,618.8z"/>
	</g>
	<g>
		<path class="st5" d="M1095.67,321.35c2.38-1.37,4.33-0.25,4.33,2.5V544.8c0,2.75-1.95,6.12-4.33,7.5L579.33,849.74
			c-2.38,1.37-4.33,0.25-4.33-2.5l0-220.94c0-2.75,1.95-6.12,4.33-7.5L1095.67,321.35z"/>
	</g>
	<linearGradient id="SVGID_4_" gradientUnits="userSpaceOnUse" x1="153" y1="692" x2="153" y2="692">
		<stop  offset="0" style="stop-color:#00FFCD"/>
		<stop  offset="1" style="stop-color:#00FF00"/>
		<stop  offset="1" style="stop-color:#00FF39"/>
		<stop  offset="1" style="stop-color:#C2FF00"/>
	</linearGradient>
	<path class="st6" d="M153,692"/>
	<linearGradient id="SVGID_5_" gradientUnits="userSpaceOnUse" x1="1511.7457" y1="578.3334" x2="1511.7457" y2="578.3334">
		<stop  offset="0" style="stop-color:#00FFCD"/>
		<stop  offset="1" style="stop-color:#00FF00"/>
		<stop  offset="1" style="stop-color:#00FF39"/>
		<stop  offset="1" style="stop-color:#C2FF00"/>
	</linearGradient>
	<path class="st7" d="M1511.75,578.33"/>
	<linearGradient id="SVGID_6_" gradientUnits="userSpaceOnUse" x1="1109.7457" y1="804.3334" x2="1109.7457" y2="804.3334">
		<stop  offset="0" style="stop-color:#00FFCD"/>
		<stop  offset="1" style="stop-color:#00FF00"/>
		<stop  offset="1" style="stop-color:#00FF39"/>
		<stop  offset="1" style="stop-color:#C2FF00"/>
	</linearGradient>
	<path class="st8" d="M1109.75,804.33"/>
	<linearGradient id="SVGID_7_" gradientUnits="userSpaceOnUse" x1="1401.2889" y1="1276.9094" x2="1401.2889" y2="1276.9094">
		<stop  offset="0" style="stop-color:#00FFCD"/>
		<stop  offset="1" style="stop-color:#00FF00"/>
		<stop  offset="1" style="stop-color:#00FF39"/>
		<stop  offset="1" style="stop-color:#C2FF00"/>
	</linearGradient>
	<path class="st9" d="M1401.29,1276.91"/>
	<linearGradient id="SVGID_8_" gradientUnits="userSpaceOnUse" x1="1102.2889" y1="1444.9094" x2="1102.2889" y2="1444.9094">
		<stop  offset="0" style="stop-color:#00FFCD"/>
		<stop  offset="1" style="stop-color:#00FF00"/>
		<stop  offset="1" style="stop-color:#00FF39"/>
		<stop  offset="1" style="stop-color:#C2FF00"/>
	</linearGradient>
	<path class="st10" d="M1102.29,1444.91"/>
	<linearGradient id="SVGID_9_" gradientUnits="userSpaceOnUse" x1="379.9038" y1="1594.9989" x2="379.9038" y2="1594.9989">
		<stop  offset="0" style="stop-color:#00FFCD"/>
		<stop  offset="1" style="stop-color:#00FF00"/>
		<stop  offset="1" style="stop-color:#00FF39"/>
		<stop  offset="1" style="stop-color:#C2FF00"/>
	</linearGradient>
	<path class="st11" d="M379.9,1595"/>
	<linearGradient id="SVGID_10_" gradientUnits="userSpaceOnUse" x1="77.9038" y1="1424.9989" x2="77.9038" y2="1424.9989">
		<stop  offset="0" style="stop-color:#00FFCD"/>
		<stop  offset="1" style="stop-color:#00FF00"/>
		<stop  offset="1" style="stop-color:#00FF39"/>
		<stop  offset="1" style="stop-color:#C2FF00"/>
	</linearGradient>
	<path class="st12" d="M77.9,1425"/>
	<linearGradient id="SVGID_11_" gradientUnits="userSpaceOnUse" x1="-129" y1="1116" x2="-129" y2="1116">
		<stop  offset="0" style="stop-color:#00FFCD"/>
		<stop  offset="1" style="stop-color:#00FF00"/>
		<stop  offset="1" style="stop-color:#00FF39"/>
		<stop  offset="1" style="stop-color:#C2FF00"/>
	</linearGradient>
	<path class="st13" d="M-129,1116"/>
	<linearGradient id="SVGID_12_" gradientUnits="userSpaceOnUse" x1="-129" y1="881" x2="-129" y2="881">
		<stop  offset="0" style="stop-color:#00FFCD"/>
		<stop  offset="1" style="stop-color:#00FF00"/>
		<stop  offset="1" style="stop-color:#00FF39"/>
		<stop  offset="1" style="stop-color:#C2FF00"/>
	</linearGradient>
	<path class="st14" d="M-129,881"/>
	<linearGradient id="SVGID_13_" gradientUnits="userSpaceOnUse" x1="1492" y1="1176" x2="1492" y2="1176">
		<stop  offset="0" style="stop-color:#00FFCD"/>
		<stop  offset="1" style="stop-color:#00FF00"/>
		<stop  offset="1" style="stop-color:#00FF39"/>
		<stop  offset="1" style="stop-color:#C2FF00"/>
	</linearGradient>
	<path class="st15" d="M1492,1176"/>
	<linearGradient id="SVGID_14_" gradientUnits="userSpaceOnUse" x1="1492" y1="941" x2="1492" y2="941">
		<stop  offset="0" style="stop-color:#00FFCD"/>
		<stop  offset="1" style="stop-color:#00FF00"/>
		<stop  offset="1" style="stop-color:#00FF39"/>
		<stop  offset="1" style="stop-color:#C2FF00"/>
	</linearGradient>
	<path class="st16" d="M1492,941"/>
	<linearGradient id="SVGID_15_" gradientUnits="userSpaceOnUse" x1="1273.0029" y1="1124" x2="1273.0029" y2="1124">
		<stop  offset="0" style="stop-color:#00FFCD"/>
		<stop  offset="1" style="stop-color:#00FF00"/>
		<stop  offset="1" style="stop-color:#00FF39"/>
		<stop  offset="1" style="stop-color:#C2FF00"/>
	</linearGradient>
	<path class="st17" d="M1273,1124"/>
	<linearGradient id="SVGID_16_" gradientUnits="userSpaceOnUse" x1="1276" y1="778" x2="1276" y2="778">
		<stop  offset="0" style="stop-color:#00FFCD"/>
		<stop  offset="1" style="stop-color:#00FF00"/>
		<stop  offset="1" style="stop-color:#00FF39"/>
		<stop  offset="1" style="stop-color:#C2FF00"/>
	</linearGradient>
	<path class="st18" d="M1276,778"/>
	<g>
		<path class="st5" d="M579.94,289.26c-2.72,0.41-4.77-1.5-4.55-4.24c0,0,3.3-41.67,6.2-59.86c3.13-19.64,7.19-35.77,12.52-49.91
			c11.45-30.38,28.76-51.64,55.38-79.12c43.2-44.59,108.73-51.04,126.76-51.97c2.68-0.14,4.98,1.86,5.23,4.53
			c1.5,15.74,2.38,40.64-3.3,68.97c-2.18,10.86-5.32,22.23-9.76,33.77c-4.22,10.97-14.05,28.75-14.05,28.75
			c-1.33,2.41-3.62,6.28-5.1,8.6c0,0-15.41,24.28-43.29,47.22c-23.19,19.08-47.52,31.5-69.83,39.64
			C612.09,284.43,579.94,289.26,579.94,289.26z"/>
	</g>
	<g>
		<path class="st5" d="M520.01,289.68c2.74,0.17,5.28-1.92,5.62-4.64c0,0,15.92-124.39-53.63-199.04
			c-34.03-36.52-76.39-52.78-103-63c-27.98-10.74-54.52-16.76-78.06-19.98C265.96-0.38,233-0.05,233-0.05
			c-2.75,0.03-4.98,2.3-4.97,5.05c0,0,0.27,38.57,7.71,70.68C243.33,108.39,258,145.73,286,180c28.28,34.6,59.73,53.34,78,64
			c35.23,20.57,69.76,32.01,99.42,38.37C488.11,287.66,520.01,289.68,520.01,289.68z"/>
	</g>
	<g>
		<g>
			<g>
				<path class="st5" d="M525,93c6.89,12.32,13.07,24.22,17,34c7.85,19.55,10,32,14,32c5,0,13.55-36.27,46-73
					c14.02-15.87,34.66-28.97,34.66-28.97c2.32-1.47,2.27-3.8-0.11-5.17L554.33,4.5c-2.38-1.37-6.28-1.37-8.67,0l-64.33,37.01
					c-2.38,1.37-2.5,3.8-0.26,5.39C481.08,46.9,511.18,68.29,525,93z"/>
			</g>
			<g>
				<path class="st5" d="M816.83,155.69c-2.38-1.37-5.19-0.42-6.24,2.13c0,0-27.25,66.15-69.59,106.18
					c-12.12,11.46-36.98,32.85-74,50c-8.76,4.06-52,23.53-113,26c-51.09,2.07-89.25-8.82-117-17c-21.06-6.2-63.56-20.51-111-51
					c-42.75-27.48-92.68-81.96-92.68-81.96c-1.86-2.03-5.33-2.56-7.71-1.19L54.33,287.5c-2.38,1.37-2.38,3.62,0,4.99L545.67,575.5
					c2.38,1.37,6.28,1.37,8.67,0l491.33-283.01c2.38-1.37,2.38-3.62,0-4.99L816.83,155.69z"/>
			</g>
		</g>
	</g>
</g>
</svg>
