<?xml version="1.0" encoding="utf-8"?>
<!-- Generator: Adobe Illustrator 23.1.0, SVG Export Plug-In . SVG Version: 6.00 Build 0)  -->
<svg version="1.1" xmlns="http://www.w3.org/2000/svg" xmlns:xlink="http://www.w3.org/1999/xlink" x="0px" y="0px"
	 viewBox="0 0 1100 1368" style="enable-background:new 0 0 1100 1368;" xml:space="preserve">
<style type="text/css">
	.st0{display:none;}
	.st1{display:inline;}
	.st2{clip-path:url(#SVGID_2_);}
	.st3{fill:none;stroke:#000000;stroke-miterlimit:10;}
	.st4{fill:url(#SVGID_3_);stroke:#000000;stroke-miterlimit:10;}
	.st5{fill:url(#SVGID_4_);}
	.st6{fill:url(#SVGID_5_);stroke:#000000;stroke-width:10;stroke-miterlimit:10;}
	.st7{fill:url(#SVGID_6_);stroke:#000000;stroke-width:10;stroke-miterlimit:10;}
	.st8{fill:url(#SVGID_7_);stroke:#000000;stroke-width:10;stroke-miterlimit:10;}
	.st9{fill:url(#SVGID_8_);stroke:#000000;stroke-width:10;stroke-miterlimit:10;}
	.st10{fill:url(#SVGID_9_);stroke:#000000;stroke-width:10;stroke-miterlimit:10;}
	.st11{fill:url(#SVGID_10_);stroke:#000000;stroke-width:10;stroke-miterlimit:10;}
	.st12{fill:url(#SVGID_11_);stroke:#000000;stroke-width:10;stroke-miterlimit:10;}
	.st13{fill:url(#SVGID_12_);stroke:#000000;stroke-width:10;stroke-miterlimit:10;}
	.st14{fill:url(#SVGID_13_);stroke:#000000;stroke-width:10;stroke-miterlimit:10;}
	.st15{fill:url(#SVGID_14_);stroke:#000000;stroke-width:10;stroke-miterlimit:10;}
	.st16{fill:url(#SVGID_15_);stroke:#000000;stroke-width:10;stroke-miterlimit:10;}
	.st17{fill:url(#SVGID_16_);stroke:#000000;stroke-width:10;stroke-miterlimit:10;}
	.st18{fill:url(#SVGID_17_);stroke:#000000;stroke-width:10;stroke-miterlimit:10;}
	.st19{fill:url(#SVGID_18_);}
</style>
<g id="Слой_1" class="st0">
	<g class="st1">
		<defs>
			<rect id="SVGID_1_" x="-450.5" y="-317.5" width="2000" height="2000"/>
		</defs>
		<clipPath id="SVGID_2_">
			<use xlink:href="#SVGID_1_"  style="overflow:visible;"/>
		</clipPath>
		<g class="st2">
			<g>
				<line class="st3" x1="2050" y1="-1010" x2="2050" y2="2374"/>
			</g>
			<g>
				<line class="st3" x1="1950" y1="-1010" x2="1950" y2="2374"/>
			</g>
			<g>
				<line class="st3" x1="1850" y1="-1010" x2="1850" y2="2374"/>
			</g>
			<g>
				<line class="st3" x1="1750" y1="-1010" x2="1750" y2="2374"/>
			</g>
			<g>
				<line class="st3" x1="1650" y1="-1010" x2="1650" y2="2374"/>
			</g>
			<g>
				<line class="st3" x1="1550" y1="-1010" x2="1550" y2="2374"/>
			</g>
			<g>
				<line class="st3" x1="1450" y1="-1010" x2="1450" y2="2374"/>
			</g>
			<g>
				<line class="st3" x1="1350" y1="-1010" x2="1350" y2="2374"/>
			</g>
			<g>
				<line class="st3" x1="1250" y1="-1010" x2="1250" y2="2374"/>
			</g>
			<g>
				<line class="st3" x1="1150" y1="-1010" x2="1150" y2="2374"/>
			</g>
			<g>
				<line class="st3" x1="1050" y1="-1010" x2="1050" y2="2374"/>
			</g>
			<g>
				<line class="st3" x1="950" y1="-1010" x2="950" y2="2374"/>
			</g>
			<g>
				<line class="st3" x1="850" y1="-1010" x2="850" y2="2374"/>
			</g>
			<g>
				<line class="st3" x1="750" y1="-1010" x2="750" y2="2374"/>
			</g>
			<g>
				<line class="st3" x1="650" y1="-1010" x2="650" y2="2374"/>
			</g>
			<g>
				<line class="st3" x1="550" y1="-1010" x2="550" y2="2374"/>
			</g>
			<g>
				<line class="st3" x1="450" y1="-1010" x2="450" y2="2374"/>
			</g>
			<g>
				<line class="st3" x1="350" y1="-1010" x2="350" y2="2374"/>
			</g>
			<g>
				<line class="st3" x1="250" y1="-1010" x2="250" y2="2374"/>
			</g>
			<g>
				<line class="st3" x1="150" y1="-1010" x2="150" y2="2374"/>
			</g>
			<g>
				<line class="st3" x1="50" y1="-1010" x2="50" y2="2374"/>
			</g>
			<g>
				<line class="st3" x1="-50" y1="-1010" x2="-50" y2="2374"/>
			</g>
			<g>
				<line class="st3" x1="-150" y1="-1010" x2="-150" y2="2374"/>
			</g>
			<g>
				<line class="st3" x1="-250" y1="-1010" x2="-250" y2="2374"/>
			</g>
			<g>
				<line class="st3" x1="-350" y1="-1010" x2="-350" y2="2374"/>
			</g>
			<g>
				<line class="st3" x1="-450" y1="-1010" x2="-450" y2="2374"/>
			</g>
			<g>
				<line class="st3" x1="-550" y1="-1010" x2="-550" y2="2374"/>
			</g>
			<g>
				<line class="st3" x1="-650" y1="-1010" x2="-650" y2="2374"/>
			</g>
			<g>
				<line class="st3" x1="-750" y1="-1010" x2="-750" y2="2374"/>
			</g>
			<g>
				<line class="st3" x1="-850" y1="-1010" x2="-850" y2="2374"/>
			</g>
			<g>
				<line class="st3" x1="-950" y1="-1010" x2="-950" y2="2374"/>
			</g>
		</g>
		<g class="st2">
			<line class="st3" x1="2765.31" y1="1135.04" x2="-165.31" y2="2827.04"/>
		</g>
		<g class="st2">
			<line class="st3" x1="2715.31" y1="1048.44" x2="-215.31" y2="2740.44"/>
		</g>
		<g class="st2">
			<line class="st3" x1="2665.31" y1="961.83" x2="-265.31" y2="2653.83"/>
		</g>
		<g class="st2">
			<line class="st3" x1="2615.31" y1="875.23" x2="-315.31" y2="2567.23"/>
		</g>
		<g class="st2">
			<line class="st3" x1="2565.31" y1="788.63" x2="-365.31" y2="2480.63"/>
		</g>
		<g class="st2">
			<line class="st3" x1="2515.31" y1="702.03" x2="-415.31" y2="2394.03"/>
		</g>
		<g class="st2">
			<line class="st3" x1="2465.31" y1="615.42" x2="-465.31" y2="2307.42"/>
		</g>
		<g class="st2">
			<line class="st3" x1="2415.31" y1="528.82" x2="-515.32" y2="2220.82"/>
		</g>
		<g class="st2">
			<line class="st3" x1="2365.31" y1="442.22" x2="-565.32" y2="2134.22"/>
		</g>
		<g class="st2">
			<line class="st3" x1="2315.31" y1="355.62" x2="-615.32" y2="2047.62"/>
		</g>
		<g class="st2">
			<line class="st3" x1="2265.31" y1="269.01" x2="-665.32" y2="1961.01"/>
		</g>
		<g class="st2">
			<line class="st3" x1="2215.31" y1="182.41" x2="-715.32" y2="1874.41"/>
		</g>
		<g class="st2">
			<line class="st3" x1="2165.31" y1="95.81" x2="-765.32" y2="1787.81"/>
		</g>
		<g class="st2">
			<line class="st3" x1="2115.31" y1="9.21" x2="-815.32" y2="1701.21"/>
		</g>
		<g class="st2">
			<line class="st3" x1="2065.31" y1="-77.4" x2="-865.32" y2="1614.6"/>
		</g>
		<g class="st2">
			<line class="st3" x1="2015.31" y1="-164" x2="-915.32" y2="1528"/>
		</g>
		<g class="st2">
			<line class="st3" x1="1965.31" y1="-250.6" x2="-965.32" y2="1441.4"/>
		</g>
		<g class="st2">
			<line class="st3" x1="1915.31" y1="-337.21" x2="-1015.32" y2="1354.79"/>
		</g>
		<g class="st2">
			<line class="st3" x1="1865.31" y1="-423.81" x2="-1065.31" y2="1268.19"/>
		</g>
		<g class="st2">
			<line class="st3" x1="1815.31" y1="-510.41" x2="-1115.31" y2="1181.59"/>
		</g>
		<g class="st2">
			<line class="st3" x1="1765.31" y1="-597.01" x2="-1165.31" y2="1094.99"/>
		</g>
		<g class="st2">
			<line class="st3" x1="1715.31" y1="-683.62" x2="-1215.31" y2="1008.38"/>
		</g>
		<g class="st2">
			<line class="st3" x1="1665.31" y1="-770.22" x2="-1265.31" y2="921.78"/>
		</g>
		<g class="st2">
			<line class="st3" x1="1615.31" y1="-856.82" x2="-1315.31" y2="835.18"/>
		</g>
		<g class="st2">
			<line class="st3" x1="1565.31" y1="-943.42" x2="-1365.31" y2="748.58"/>
		</g>
		<g class="st2">
			<line class="st3" x1="1515.31" y1="-1030.03" x2="-1415.31" y2="661.97"/>
		</g>
		<g class="st2">
			<line class="st3" x1="1465.31" y1="-1116.63" x2="-1465.31" y2="575.37"/>
		</g>
		<g class="st2">
			<line class="st3" x1="1415.31" y1="-1203.23" x2="-1515.31" y2="488.77"/>
		</g>
		<g class="st2">
			<line class="st3" x1="1365.31" y1="-1289.83" x2="-1565.31" y2="402.17"/>
		</g>
		<g class="st2">
			<line class="st3" x1="1315.31" y1="-1376.44" x2="-1615.31" y2="315.56"/>
		</g>
		<g class="st2">
			<line class="st3" x1="1265.31" y1="-1463.04" x2="-1665.31" y2="228.96"/>
		</g>
		<g class="st2">
			<line class="st3" x1="1265.31" y1="2827.04" x2="-1665.31" y2="1135.04"/>
		</g>
		<g class="st2">
			<line class="st3" x1="1315.31" y1="2740.44" x2="-1615.31" y2="1048.44"/>
		</g>
		<g class="st2">
			<line class="st3" x1="1365.31" y1="2653.83" x2="-1565.31" y2="961.83"/>
		</g>
		<g class="st2">
			<line class="st3" x1="1415.31" y1="2567.23" x2="-1515.31" y2="875.23"/>
		</g>
		<g class="st2">
			<line class="st3" x1="1465.31" y1="2480.63" x2="-1465.31" y2="788.63"/>
		</g>
		<g class="st2">
			<line class="st3" x1="1515.31" y1="2394.03" x2="-1415.31" y2="702.03"/>
		</g>
		<g class="st2">
			<line class="st3" x1="1565.31" y1="2307.42" x2="-1365.31" y2="615.42"/>
		</g>
		<g class="st2">
			<line class="st3" x1="1615.31" y1="2220.82" x2="-1315.31" y2="528.82"/>
		</g>
		<g class="st2">
			<line class="st3" x1="1665.31" y1="2134.22" x2="-1265.31" y2="442.22"/>
		</g>
		<g class="st2">
			<line class="st3" x1="1715.31" y1="2047.62" x2="-1215.31" y2="355.62"/>
		</g>
		<g class="st2">
			<line class="st3" x1="1765.31" y1="1961.01" x2="-1165.31" y2="269.01"/>
		</g>
		<g class="st2">
			<linearGradient id="SVGID_3_" gradientUnits="userSpaceOnUse" x1="-1115.3149" y1="1028.4102" x2="1815.3149" y2="1028.4102">
				<stop  offset="0" style="stop-color:#FFFFFF"/>
				<stop  offset="1" style="stop-color:#000000"/>
			</linearGradient>
			<line class="st4" x1="1815.31" y1="1874.41" x2="-1115.31" y2="182.41"/>
		</g>
		<g class="st2">
			<line class="st3" x1="1865.31" y1="1787.81" x2="-1065.31" y2="95.81"/>
		</g>
		<g class="st2">
			<line class="st3" x1="1915.31" y1="1701.21" x2="-1015.32" y2="9.21"/>
		</g>
		<g class="st2">
			<line class="st3" x1="1965.31" y1="1614.6" x2="-965.32" y2="-77.4"/>
		</g>
		<g class="st2">
			<line class="st3" x1="2015.31" y1="1528" x2="-915.32" y2="-164"/>
		</g>
		<g class="st2">
			<line class="st3" x1="2065.31" y1="1441.4" x2="-865.32" y2="-250.6"/>
		</g>
		<g class="st2">
			<line class="st3" x1="2115.31" y1="1354.79" x2="-815.32" y2="-337.21"/>
		</g>
		<g class="st2">
			<line class="st3" x1="2165.31" y1="1268.19" x2="-765.32" y2="-423.81"/>
		</g>
		<g class="st2">
			<line class="st3" x1="2215.31" y1="1181.59" x2="-715.31" y2="-510.41"/>
		</g>
		<g class="st2">
			<line class="st3" x1="2265.31" y1="1094.99" x2="-665.32" y2="-597.01"/>
		</g>
		<g class="st2">
			<line class="st3" x1="2315.31" y1="1008.38" x2="-615.32" y2="-683.62"/>
		</g>
		<g class="st2">
			<line class="st3" x1="2365.31" y1="921.78" x2="-565.32" y2="-770.22"/>
		</g>
		<g class="st2">
			<line class="st3" x1="2415.31" y1="835.18" x2="-515.32" y2="-856.82"/>
		</g>
		<g class="st2">
			<line class="st3" x1="2465.31" y1="748.58" x2="-465.31" y2="-943.42"/>
		</g>
		<g class="st2">
			<line class="st3" x1="2515.31" y1="661.97" x2="-415.31" y2="-1030.03"/>
		</g>
		<g class="st2">
			<line class="st3" x1="2565.31" y1="575.37" x2="-365.31" y2="-1116.63"/>
		</g>
		<g class="st2">
			<line class="st3" x1="2615.31" y1="488.77" x2="-315.31" y2="-1203.23"/>
		</g>
		<g class="st2">
			<line class="st3" x1="2665.31" y1="402.17" x2="-265.31" y2="-1289.83"/>
		</g>
		<g class="st2">
			<line class="st3" x1="2715.31" y1="315.56" x2="-215.31" y2="-1376.44"/>
		</g>
		<g class="st2">
			<line class="st3" x1="2765.31" y1="228.96" x2="-165.31" y2="-1463.04"/>
		</g>
	</g>
</g>
<g id="Слой_2">
	<g>
		<linearGradient id="SVGID_4_" gradientUnits="userSpaceOnUse" x1="837.4982" y1="-60.8442" x2="837.4982" y2="1433.8599">
			<stop  offset="0" style="stop-color:#2D53FE"/>
			<stop  offset="1" style="stop-color:#2D53FE"/>
			<stop  offset="1" style="stop-color:#00FF39"/>
			<stop  offset="1" style="stop-color:#C2FF00"/>
		</linearGradient>
		<path class="st5" d="M1095.67,321.35c2.38-1.37,4.33-0.25,4.33,2.5V544.8c0,2.75-1.95,6.12-4.33,7.5L579.33,849.74
			c-2.38,1.37-4.33,0.25-4.33-2.5l0-220.94c0-2.75,1.95-6.12,4.33-7.5L1095.67,321.35z"/>
	</g>
	<linearGradient id="SVGID_5_" gradientUnits="userSpaceOnUse" x1="153" y1="692" x2="153" y2="692">
		<stop  offset="0" style="stop-color:#00FFCD"/>
		<stop  offset="1" style="stop-color:#00FF00"/>
		<stop  offset="1" style="stop-color:#00FF39"/>
		<stop  offset="1" style="stop-color:#C2FF00"/>
	</linearGradient>
	<path class="st6" d="M153,692"/>
	<linearGradient id="SVGID_6_" gradientUnits="userSpaceOnUse" x1="1511.7457" y1="578.3334" x2="1511.7457" y2="578.3334">
		<stop  offset="0" style="stop-color:#00FFCD"/>
		<stop  offset="1" style="stop-color:#00FF00"/>
		<stop  offset="1" style="stop-color:#00FF39"/>
		<stop  offset="1" style="stop-color:#C2FF00"/>
	</linearGradient>
	<path class="st7" d="M1511.75,578.33"/>
	<linearGradient id="SVGID_7_" gradientUnits="userSpaceOnUse" x1="1109.7457" y1="804.3334" x2="1109.7457" y2="804.3334">
		<stop  offset="0" style="stop-color:#00FFCD"/>
		<stop  offset="1" style="stop-color:#00FF00"/>
		<stop  offset="1" style="stop-color:#00FF39"/>
		<stop  offset="1" style="stop-color:#C2FF00"/>
	</linearGradient>
	<path class="st8" d="M1109.75,804.33"/>
	<linearGradient id="SVGID_8_" gradientUnits="userSpaceOnUse" x1="1401.2889" y1="1276.9094" x2="1401.2889" y2="1276.9094">
		<stop  offset="0" style="stop-color:#00FFCD"/>
		<stop  offset="1" style="stop-color:#00FF00"/>
		<stop  offset="1" style="stop-color:#00FF39"/>
		<stop  offset="1" style="stop-color:#C2FF00"/>
	</linearGradient>
	<path class="st9" d="M1401.29,1276.91"/>
	<linearGradient id="SVGID_9_" gradientUnits="userSpaceOnUse" x1="1102.2889" y1="1444.9094" x2="1102.2889" y2="1444.9094">
		<stop  offset="0" style="stop-color:#00FFCD"/>
		<stop  offset="1" style="stop-color:#00FF00"/>
		<stop  offset="1" style="stop-color:#00FF39"/>
		<stop  offset="1" style="stop-color:#C2FF00"/>
	</linearGradient>
	<path class="st10" d="M1102.29,1444.91"/>
	<linearGradient id="SVGID_10_" gradientUnits="userSpaceOnUse" x1="379.9038" y1="1594.9989" x2="379.9038" y2="1594.9989">
		<stop  offset="0" style="stop-color:#00FFCD"/>
		<stop  offset="1" style="stop-color:#00FF00"/>
		<stop  offset="1" style="stop-color:#00FF39"/>
		<stop  offset="1" style="stop-color:#C2FF00"/>
	</linearGradient>
	<path class="st11" d="M379.9,1595"/>
	<linearGradient id="SVGID_11_" gradientUnits="userSpaceOnUse" x1="77.9038" y1="1424.9989" x2="77.9038" y2="1424.9989">
		<stop  offset="0" style="stop-color:#00FFCD"/>
		<stop  offset="1" style="stop-color:#00FF00"/>
		<stop  offset="1" style="stop-color:#00FF39"/>
		<stop  offset="1" style="stop-color:#C2FF00"/>
	</linearGradient>
	<path class="st12" d="M77.9,1425"/>
	<linearGradient id="SVGID_12_" gradientUnits="userSpaceOnUse" x1="-129" y1="1116" x2="-129" y2="1116">
		<stop  offset="0" style="stop-color:#00FFCD"/>
		<stop  offset="1" style="stop-color:#00FF00"/>
		<stop  offset="1" style="stop-color:#00FF39"/>
		<stop  offset="1" style="stop-color:#C2FF00"/>
	</linearGradient>
	<path class="st13" d="M-129,1116"/>
	<linearGradient id="SVGID_13_" gradientUnits="userSpaceOnUse" x1="-129" y1="881" x2="-129" y2="881">
		<stop  offset="0" style="stop-color:#00FFCD"/>
		<stop  offset="1" style="stop-color:#00FF00"/>
		<stop  offset="1" style="stop-color:#00FF39"/>
		<stop  offset="1" style="stop-color:#C2FF00"/>
	</linearGradient>
	<path class="st14" d="M-129,881"/>
	<linearGradient id="SVGID_14_" gradientUnits="userSpaceOnUse" x1="1492" y1="1176" x2="1492" y2="1176">
		<stop  offset="0" style="stop-color:#00FFCD"/>
		<stop  offset="1" style="stop-color:#00FF00"/>
		<stop  offset="1" style="stop-color:#00FF39"/>
		<stop  offset="1" style="stop-color:#C2FF00"/>
	</linearGradient>
	<path class="st15" d="M1492,1176"/>
	<linearGradient id="SVGID_15_" gradientUnits="userSpaceOnUse" x1="1492" y1="941" x2="1492" y2="941">
		<stop  offset="0" style="stop-color:#00FFCD"/>
		<stop  offset="1" style="stop-color:#00FF00"/>
		<stop  offset="1" style="stop-color:#00FF39"/>
		<stop  offset="1" style="stop-color:#C2FF00"/>
	</linearGradient>
	<path class="st16" d="M1492,941"/>
	<linearGradient id="SVGID_16_" gradientUnits="userSpaceOnUse" x1="1273.0029" y1="1124" x2="1273.0029" y2="1124">
		<stop  offset="0" style="stop-color:#00FFCD"/>
		<stop  offset="1" style="stop-color:#00FF00"/>
		<stop  offset="1" style="stop-color:#00FF39"/>
		<stop  offset="1" style="stop-color:#C2FF00"/>
	</linearGradient>
	<path class="st17" d="M1273,1124"/>
	<linearGradient id="SVGID_17_" gradientUnits="userSpaceOnUse" x1="1276" y1="778" x2="1276" y2="778">
		<stop  offset="0" style="stop-color:#00FFCD"/>
		<stop  offset="1" style="stop-color:#00FF00"/>
		<stop  offset="1" style="stop-color:#00FF39"/>
		<stop  offset="1" style="stop-color:#C2FF00"/>
	</linearGradient>
	<path class="st18" d="M1276,778"/>
	<linearGradient id="SVGID_18_" gradientUnits="userSpaceOnUse" x1="812.5" y1="-65.5091" x2="812.5" y2="1439.9819">
		<stop  offset="0" style="stop-color:#2D53FE"/>
		<stop  offset="1" style="stop-color:#2D53FE"/>
		<stop  offset="1" style="stop-color:#00FF39"/>
		<stop  offset="1" style="stop-color:#C2FF00"/>
	</linearGradient>
	<path class="st19" d="M725,826.17v102.98c0,3.84,4.15,6.25,7.48,4.34l210.04-120.24c3.33-1.91,7.48,0.5,7.48,4.34l0,164.39
		c0,35.83-19.17,68.92-50.24,86.74l-217.27,124.39c-3.33,1.91-7.48-0.5-7.48-4.34l0-327.93c0-3.85-4.17-6.26-7.5-4.33l-90,52.01
		c-1.55,0.89-2.5,2.54-2.5,4.33v450.33c0,3.85,4.17,6.25,7.5,4.33L950,1155.5c61.51-35.83,100-101.32,100-172.5V644.13
		c0-3.85-4.17-6.26-7.5-4.33l-315,182.04C725.95,822.74,725,824.39,725,826.17z"/>
</g>
</svg>
