<?xml version="1.0" encoding="utf-8"?>
<!-- Generator: Adobe Illustrator 23.1.0, SVG Export Plug-In . SVG Version: 6.00 Build 0)  -->
<svg version="1.1" id="Слой_1" xmlns="http://www.w3.org/2000/svg" xmlns:xlink="http://www.w3.org/1999/xlink" x="0px" y="0px"
	 viewBox="0 0 1100 1368" style="enable-background:new 0 0 1100 1368;" xml:space="preserve">
<style type="text/css">
	.st0{display:none;}
	.st1{display:inline;}
	.st2{clip-path:url(#SVGID_2_);}
	.st3{fill:none;stroke:#000000;stroke-miterlimit:10;}
	.st4{clip-path:url(#SVGID_4_);}
	.st5{clip-path:url(#SVGID_6_);}
	.st6{clip-path:url(#SVGID_8_);}
	.st7{clip-path:url(#SVGID_10_);}
	.st8{clip-path:url(#SVGID_12_);}
	.st9{clip-path:url(#SVGID_14_);}
	.st10{clip-path:url(#SVGID_16_);}
	.st11{clip-path:url(#SVGID_18_);}
	.st12{clip-path:url(#SVGID_20_);}
	.st13{clip-path:url(#SVGID_22_);}
	.st14{clip-path:url(#SVGID_24_);}
	.st15{clip-path:url(#SVGID_26_);}
	.st16{clip-path:url(#SVGID_28_);}
	.st17{clip-path:url(#SVGID_30_);}
	.st18{clip-path:url(#SVGID_32_);}
	.st19{clip-path:url(#SVGID_34_);}
	.st20{clip-path:url(#SVGID_36_);}
	.st21{clip-path:url(#SVGID_38_);}
	.st22{clip-path:url(#SVGID_40_);}
	.st23{clip-path:url(#SVGID_42_);}
	.st24{clip-path:url(#SVGID_44_);}
	.st25{clip-path:url(#SVGID_46_);}
	.st26{clip-path:url(#SVGID_48_);}
	.st27{clip-path:url(#SVGID_50_);}
	.st28{clip-path:url(#SVGID_52_);}
	.st29{clip-path:url(#SVGID_54_);}
	.st30{clip-path:url(#SVGID_56_);}
	.st31{clip-path:url(#SVGID_58_);}
	.st32{clip-path:url(#SVGID_60_);}
	.st33{clip-path:url(#SVGID_62_);}
	.st34{clip-path:url(#SVGID_64_);}
	.st35{clip-path:url(#SVGID_66_);}
	.st36{clip-path:url(#SVGID_68_);}
	.st37{clip-path:url(#SVGID_70_);}
	.st38{clip-path:url(#SVGID_72_);}
	.st39{clip-path:url(#SVGID_74_);}
	.st40{clip-path:url(#SVGID_76_);}
	.st41{clip-path:url(#SVGID_78_);}
	.st42{clip-path:url(#SVGID_80_);}
	.st43{clip-path:url(#SVGID_82_);}
	.st44{clip-path:url(#SVGID_84_);}
	.st45{clip-path:url(#SVGID_86_);}
	.st46{clip-path:url(#SVGID_88_);}
	.st47{clip-path:url(#SVGID_90_);}
	.st48{clip-path:url(#SVGID_92_);}
	.st49{clip-path:url(#SVGID_94_);}
	.st50{clip-path:url(#SVGID_96_);}
	.st51{clip-path:url(#SVGID_98_);}
	.st52{clip-path:url(#SVGID_100_);}
	.st53{clip-path:url(#SVGID_102_);}
	.st54{clip-path:url(#SVGID_104_);}
	.st55{clip-path:url(#SVGID_106_);}
	.st56{clip-path:url(#SVGID_108_);}
	.st57{clip-path:url(#SVGID_110_);}
	.st58{clip-path:url(#SVGID_112_);}
	.st59{clip-path:url(#SVGID_114_);}
	.st60{clip-path:url(#SVGID_116_);}
	.st61{clip-path:url(#SVGID_118_);}
	.st62{clip-path:url(#SVGID_120_);}
	.st63{clip-path:url(#SVGID_122_);}
	.st64{clip-path:url(#SVGID_124_);}
	.st65{clip-path:url(#SVGID_126_);}
	.st66{fill:url(#SVGID_127_);}
	.st67{fill:url(#SVGID_128_);stroke:#000000;stroke-width:10;stroke-miterlimit:10;}
	.st68{fill:url(#SVGID_129_);stroke:#000000;stroke-width:10;stroke-miterlimit:10;}
	.st69{fill:url(#SVGID_130_);stroke:#000000;stroke-width:10;stroke-miterlimit:10;}
	.st70{fill:url(#SVGID_131_);stroke:#000000;stroke-width:10;stroke-miterlimit:10;}
	.st71{fill:url(#SVGID_132_);stroke:#000000;stroke-width:10;stroke-miterlimit:10;}
	.st72{fill:url(#SVGID_133_);stroke:#000000;stroke-width:10;stroke-miterlimit:10;}
	.st73{fill:url(#SVGID_134_);stroke:#000000;stroke-width:10;stroke-miterlimit:10;}
	.st74{fill:url(#SVGID_135_);stroke:#000000;stroke-width:10;stroke-miterlimit:10;}
	.st75{fill:url(#SVGID_136_);stroke:#000000;stroke-width:10;stroke-miterlimit:10;}
	.st76{fill:url(#SVGID_137_);stroke:#000000;stroke-width:10;stroke-miterlimit:10;}
	.st77{fill:url(#SVGID_138_);stroke:#000000;stroke-width:10;stroke-miterlimit:10;}
	.st78{fill:url(#SVGID_139_);stroke:#000000;stroke-width:10;stroke-miterlimit:10;}
	.st79{fill:url(#SVGID_140_);stroke:#000000;stroke-width:10;stroke-miterlimit:10;}
	.st80{fill:url(#SVGID_141_);}
	.st81{fill:url(#SVGID_142_);}
	.st82{fill:url(#SVGID_143_);}
	.st83{fill:url(#SVGID_144_);}
	.st84{fill:url(#SVGID_145_);}
	.st85{fill:url(#SVGID_146_);}
</style>
<g class="st0">
	<g class="st1">
		<g>
			<defs>
				<rect id="SVGID_1_" x="-450.5" y="-317.5" width="2000" height="2000"/>
			</defs>
			<clipPath id="SVGID_2_">
				<use xlink:href="#SVGID_1_"  style="overflow:visible;"/>
			</clipPath>
			<g class="st2">
				<g>
					<line class="st3" x1="2050" y1="-1010" x2="2050" y2="2374"/>
				</g>
				<g>
					<line class="st3" x1="1950" y1="-1010" x2="1950" y2="2374"/>
				</g>
				<g>
					<line class="st3" x1="1850" y1="-1010" x2="1850" y2="2374"/>
				</g>
				<g>
					<line class="st3" x1="1750" y1="-1010" x2="1750" y2="2374"/>
				</g>
				<g>
					<line class="st3" x1="1650" y1="-1010" x2="1650" y2="2374"/>
				</g>
				<g>
					<line class="st3" x1="1550" y1="-1010" x2="1550" y2="2374"/>
				</g>
				<g>
					<line class="st3" x1="1450" y1="-1010" x2="1450" y2="2374"/>
				</g>
				<g>
					<line class="st3" x1="1350" y1="-1010" x2="1350" y2="2374"/>
				</g>
				<g>
					<line class="st3" x1="1250" y1="-1010" x2="1250" y2="2374"/>
				</g>
				<g>
					<line class="st3" x1="1150" y1="-1010" x2="1150" y2="2374"/>
				</g>
				<g>
					<line class="st3" x1="1050" y1="-1010" x2="1050" y2="2374"/>
				</g>
				<g>
					<line class="st3" x1="950" y1="-1010" x2="950" y2="2374"/>
				</g>
				<g>
					<line class="st3" x1="850" y1="-1010" x2="850" y2="2374"/>
				</g>
				<g>
					<line class="st3" x1="750" y1="-1010" x2="750" y2="2374"/>
				</g>
				<g>
					<line class="st3" x1="650" y1="-1010" x2="650" y2="2374"/>
				</g>
				<g>
					<line class="st3" x1="550" y1="-1010" x2="550" y2="2374"/>
				</g>
				<g>
					<line class="st3" x1="450" y1="-1010" x2="450" y2="2374"/>
				</g>
				<g>
					<line class="st3" x1="350" y1="-1010" x2="350" y2="2374"/>
				</g>
				<g>
					<line class="st3" x1="250" y1="-1010" x2="250" y2="2374"/>
				</g>
				<g>
					<line class="st3" x1="150" y1="-1010" x2="150" y2="2374"/>
				</g>
				<g>
					<line class="st3" x1="50" y1="-1010" x2="50" y2="2374"/>
				</g>
				<g>
					<line class="st3" x1="-50" y1="-1010" x2="-50" y2="2374"/>
				</g>
				<g>
					<line class="st3" x1="-150" y1="-1010" x2="-150" y2="2374"/>
				</g>
				<g>
					<line class="st3" x1="-250" y1="-1010" x2="-250" y2="2374"/>
				</g>
				<g>
					<line class="st3" x1="-350" y1="-1010" x2="-350" y2="2374"/>
				</g>
				<g>
					<line class="st3" x1="-450" y1="-1010" x2="-450" y2="2374"/>
				</g>
				<g>
					<line class="st3" x1="-550" y1="-1010" x2="-550" y2="2374"/>
				</g>
				<g>
					<line class="st3" x1="-650" y1="-1010" x2="-650" y2="2374"/>
				</g>
				<g>
					<line class="st3" x1="-750" y1="-1010" x2="-750" y2="2374"/>
				</g>
				<g>
					<line class="st3" x1="-850" y1="-1010" x2="-850" y2="2374"/>
				</g>
				<g>
					<line class="st3" x1="-950" y1="-1010" x2="-950" y2="2374"/>
				</g>
			</g>
		</g>
		<g>
			<defs>
				<rect id="SVGID_3_" x="-450.5" y="-317.5" width="2000" height="2000"/>
			</defs>
			<clipPath id="SVGID_4_">
				<use xlink:href="#SVGID_3_"  style="overflow:visible;"/>
			</clipPath>
			<g class="st4">
				<line class="st3" x1="2765.3" y1="1135" x2="-165.3" y2="2827"/>
			</g>
		</g>
		<g>
			<defs>
				<rect id="SVGID_5_" x="-450.5" y="-317.5" width="2000" height="2000"/>
			</defs>
			<clipPath id="SVGID_6_">
				<use xlink:href="#SVGID_5_"  style="overflow:visible;"/>
			</clipPath>
			<g class="st5">
				<line class="st3" x1="2715.3" y1="1048.4" x2="-215.3" y2="2740.4"/>
			</g>
		</g>
		<g>
			<defs>
				<rect id="SVGID_7_" x="-450.5" y="-317.5" width="2000" height="2000"/>
			</defs>
			<clipPath id="SVGID_8_">
				<use xlink:href="#SVGID_7_"  style="overflow:visible;"/>
			</clipPath>
			<g class="st6">
				<line class="st3" x1="2665.3" y1="961.8" x2="-265.3" y2="2653.8"/>
			</g>
		</g>
		<g>
			<defs>
				<rect id="SVGID_9_" x="-450.5" y="-317.5" width="2000" height="2000"/>
			</defs>
			<clipPath id="SVGID_10_">
				<use xlink:href="#SVGID_9_"  style="overflow:visible;"/>
			</clipPath>
			<g class="st7">
				<line class="st3" x1="2615.3" y1="875.2" x2="-315.3" y2="2567.2"/>
			</g>
		</g>
		<g>
			<defs>
				<rect id="SVGID_11_" x="-450.5" y="-317.5" width="2000" height="2000"/>
			</defs>
			<clipPath id="SVGID_12_">
				<use xlink:href="#SVGID_11_"  style="overflow:visible;"/>
			</clipPath>
			<g class="st8">
				<line class="st3" x1="2565.3" y1="788.6" x2="-365.3" y2="2480.6"/>
			</g>
		</g>
		<g>
			<defs>
				<rect id="SVGID_13_" x="-450.5" y="-317.5" width="2000" height="2000"/>
			</defs>
			<clipPath id="SVGID_14_">
				<use xlink:href="#SVGID_13_"  style="overflow:visible;"/>
			</clipPath>
			<g class="st9">
				<line class="st3" x1="2515.3" y1="702" x2="-415.3" y2="2394"/>
			</g>
		</g>
		<g>
			<defs>
				<rect id="SVGID_15_" x="-450.5" y="-317.5" width="2000" height="2000"/>
			</defs>
			<clipPath id="SVGID_16_">
				<use xlink:href="#SVGID_15_"  style="overflow:visible;"/>
			</clipPath>
			<g class="st10">
				<line class="st3" x1="2465.3" y1="615.4" x2="-465.3" y2="2307.4"/>
			</g>
		</g>
		<g>
			<defs>
				<rect id="SVGID_17_" x="-450.5" y="-317.5" width="2000" height="2000"/>
			</defs>
			<clipPath id="SVGID_18_">
				<use xlink:href="#SVGID_17_"  style="overflow:visible;"/>
			</clipPath>
			<g class="st11">
				<line class="st3" x1="2415.3" y1="528.8" x2="-515.3" y2="2220.8"/>
			</g>
		</g>
		<g>
			<defs>
				<rect id="SVGID_19_" x="-450.5" y="-317.5" width="2000" height="2000"/>
			</defs>
			<clipPath id="SVGID_20_">
				<use xlink:href="#SVGID_19_"  style="overflow:visible;"/>
			</clipPath>
			<g class="st12">
				<line class="st3" x1="2365.3" y1="442.2" x2="-565.3" y2="2134.2"/>
			</g>
		</g>
		<g>
			<defs>
				<rect id="SVGID_21_" x="-450.5" y="-317.5" width="2000" height="2000"/>
			</defs>
			<clipPath id="SVGID_22_">
				<use xlink:href="#SVGID_21_"  style="overflow:visible;"/>
			</clipPath>
			<g class="st13">
				<line class="st3" x1="2315.3" y1="355.6" x2="-615.3" y2="2047.6"/>
			</g>
		</g>
		<g>
			<defs>
				<rect id="SVGID_23_" x="-450.5" y="-317.5" width="2000" height="2000"/>
			</defs>
			<clipPath id="SVGID_24_">
				<use xlink:href="#SVGID_23_"  style="overflow:visible;"/>
			</clipPath>
			<g class="st14">
				<line class="st3" x1="2265.3" y1="269" x2="-665.3" y2="1961"/>
			</g>
		</g>
		<g>
			<defs>
				<rect id="SVGID_25_" x="-450.5" y="-317.5" width="2000" height="2000"/>
			</defs>
			<clipPath id="SVGID_26_">
				<use xlink:href="#SVGID_25_"  style="overflow:visible;"/>
			</clipPath>
			<g class="st15">
				<line class="st3" x1="2215.3" y1="182.4" x2="-715.3" y2="1874.4"/>
			</g>
		</g>
		<g>
			<defs>
				<rect id="SVGID_27_" x="-450.5" y="-317.5" width="2000" height="2000"/>
			</defs>
			<clipPath id="SVGID_28_">
				<use xlink:href="#SVGID_27_"  style="overflow:visible;"/>
			</clipPath>
			<g class="st16">
				<line class="st3" x1="2165.3" y1="95.8" x2="-765.3" y2="1787.8"/>
			</g>
		</g>
		<g>
			<defs>
				<rect id="SVGID_29_" x="-450.5" y="-317.5" width="2000" height="2000"/>
			</defs>
			<clipPath id="SVGID_30_">
				<use xlink:href="#SVGID_29_"  style="overflow:visible;"/>
			</clipPath>
			<g class="st17">
				<line class="st3" x1="2115.3" y1="9.2" x2="-815.3" y2="1701.2"/>
			</g>
		</g>
		<g>
			<defs>
				<rect id="SVGID_31_" x="-450.5" y="-317.5" width="2000" height="2000"/>
			</defs>
			<clipPath id="SVGID_32_">
				<use xlink:href="#SVGID_31_"  style="overflow:visible;"/>
			</clipPath>
			<g class="st18">
				<line class="st3" x1="2065.3" y1="-77.4" x2="-865.3" y2="1614.6"/>
			</g>
		</g>
		<g>
			<defs>
				<rect id="SVGID_33_" x="-450.5" y="-317.5" width="2000" height="2000"/>
			</defs>
			<clipPath id="SVGID_34_">
				<use xlink:href="#SVGID_33_"  style="overflow:visible;"/>
			</clipPath>
			<g class="st19">
				<line class="st3" x1="2015.3" y1="-164" x2="-915.3" y2="1528"/>
			</g>
		</g>
		<g>
			<defs>
				<rect id="SVGID_35_" x="-450.5" y="-317.5" width="2000" height="2000"/>
			</defs>
			<clipPath id="SVGID_36_">
				<use xlink:href="#SVGID_35_"  style="overflow:visible;"/>
			</clipPath>
			<g class="st20">
				<line class="st3" x1="1965.3" y1="-250.6" x2="-965.3" y2="1441.4"/>
			</g>
		</g>
		<g>
			<defs>
				<rect id="SVGID_37_" x="-450.5" y="-317.5" width="2000" height="2000"/>
			</defs>
			<clipPath id="SVGID_38_">
				<use xlink:href="#SVGID_37_"  style="overflow:visible;"/>
			</clipPath>
			<g class="st21">
				<line class="st3" x1="1915.3" y1="-337.2" x2="-1015.3" y2="1354.8"/>
			</g>
		</g>
		<g>
			<defs>
				<rect id="SVGID_39_" x="-450.5" y="-317.5" width="2000" height="2000"/>
			</defs>
			<clipPath id="SVGID_40_">
				<use xlink:href="#SVGID_39_"  style="overflow:visible;"/>
			</clipPath>
			<g class="st22">
				<line class="st3" x1="1865.3" y1="-423.8" x2="-1065.3" y2="1268.2"/>
			</g>
		</g>
		<g>
			<defs>
				<rect id="SVGID_41_" x="-450.5" y="-317.5" width="2000" height="2000"/>
			</defs>
			<clipPath id="SVGID_42_">
				<use xlink:href="#SVGID_41_"  style="overflow:visible;"/>
			</clipPath>
			<g class="st23">
				<line class="st3" x1="1815.3" y1="-510.4" x2="-1115.3" y2="1181.6"/>
			</g>
		</g>
		<g>
			<defs>
				<rect id="SVGID_43_" x="-450.5" y="-317.5" width="2000" height="2000"/>
			</defs>
			<clipPath id="SVGID_44_">
				<use xlink:href="#SVGID_43_"  style="overflow:visible;"/>
			</clipPath>
			<g class="st24">
				<line class="st3" x1="1765.3" y1="-597" x2="-1165.3" y2="1095"/>
			</g>
		</g>
		<g>
			<defs>
				<rect id="SVGID_45_" x="-450.5" y="-317.5" width="2000" height="2000"/>
			</defs>
			<clipPath id="SVGID_46_">
				<use xlink:href="#SVGID_45_"  style="overflow:visible;"/>
			</clipPath>
			<g class="st25">
				<line class="st3" x1="1715.3" y1="-683.6" x2="-1215.3" y2="1008.4"/>
			</g>
		</g>
		<g>
			<defs>
				<rect id="SVGID_47_" x="-450.5" y="-317.5" width="2000" height="2000"/>
			</defs>
			<clipPath id="SVGID_48_">
				<use xlink:href="#SVGID_47_"  style="overflow:visible;"/>
			</clipPath>
			<g class="st26">
				<line class="st3" x1="1665.3" y1="-770.2" x2="-1265.3" y2="921.8"/>
			</g>
		</g>
		<g>
			<defs>
				<rect id="SVGID_49_" x="-450.5" y="-317.5" width="2000" height="2000"/>
			</defs>
			<clipPath id="SVGID_50_">
				<use xlink:href="#SVGID_49_"  style="overflow:visible;"/>
			</clipPath>
			<g class="st27">
				<line class="st3" x1="1615.3" y1="-856.8" x2="-1315.3" y2="835.2"/>
			</g>
		</g>
		<g>
			<defs>
				<rect id="SVGID_51_" x="-450.5" y="-317.5" width="2000" height="2000"/>
			</defs>
			<clipPath id="SVGID_52_">
				<use xlink:href="#SVGID_51_"  style="overflow:visible;"/>
			</clipPath>
			<g class="st28">
				<line class="st3" x1="1565.3" y1="-943.4" x2="-1365.3" y2="748.6"/>
			</g>
		</g>
		<g>
			<defs>
				<rect id="SVGID_53_" x="-450.5" y="-317.5" width="2000" height="2000"/>
			</defs>
			<clipPath id="SVGID_54_">
				<use xlink:href="#SVGID_53_"  style="overflow:visible;"/>
			</clipPath>
			<g class="st29">
				<line class="st3" x1="1515.3" y1="-1030" x2="-1415.3" y2="662"/>
			</g>
		</g>
		<g>
			<defs>
				<rect id="SVGID_55_" x="-450.5" y="-317.5" width="2000" height="2000"/>
			</defs>
			<clipPath id="SVGID_56_">
				<use xlink:href="#SVGID_55_"  style="overflow:visible;"/>
			</clipPath>
			<g class="st30">
				<line class="st3" x1="1465.3" y1="-1116.6" x2="-1465.3" y2="575.4"/>
			</g>
		</g>
		<g>
			<defs>
				<rect id="SVGID_57_" x="-450.5" y="-317.5" width="2000" height="2000"/>
			</defs>
			<clipPath id="SVGID_58_">
				<use xlink:href="#SVGID_57_"  style="overflow:visible;"/>
			</clipPath>
			<g class="st31">
				<line class="st3" x1="1415.3" y1="-1203.2" x2="-1515.3" y2="488.8"/>
			</g>
		</g>
		<g>
			<defs>
				<rect id="SVGID_59_" x="-450.5" y="-317.5" width="2000" height="2000"/>
			</defs>
			<clipPath id="SVGID_60_">
				<use xlink:href="#SVGID_59_"  style="overflow:visible;"/>
			</clipPath>
			<g class="st32">
				<line class="st3" x1="1365.3" y1="-1289.8" x2="-1565.3" y2="402.2"/>
			</g>
		</g>
		<g>
			<defs>
				<rect id="SVGID_61_" x="-450.5" y="-317.5" width="2000" height="2000"/>
			</defs>
			<clipPath id="SVGID_62_">
				<use xlink:href="#SVGID_61_"  style="overflow:visible;"/>
			</clipPath>
			<g class="st33">
				<line class="st3" x1="1315.3" y1="-1376.4" x2="-1615.3" y2="315.6"/>
			</g>
		</g>
		<g>
			<defs>
				<rect id="SVGID_63_" x="-450.5" y="-317.5" width="2000" height="2000"/>
			</defs>
			<clipPath id="SVGID_64_">
				<use xlink:href="#SVGID_63_"  style="overflow:visible;"/>
			</clipPath>
			<g class="st34">
				<line class="st3" x1="1265.3" y1="-1463" x2="-1665.3" y2="229"/>
			</g>
		</g>
		<g>
			<defs>
				<rect id="SVGID_65_" x="-450.5" y="-317.5" width="2000" height="2000"/>
			</defs>
			<clipPath id="SVGID_66_">
				<use xlink:href="#SVGID_65_"  style="overflow:visible;"/>
			</clipPath>
			<g class="st35">
				<line class="st3" x1="1265.3" y1="2827" x2="-1665.3" y2="1135"/>
			</g>
		</g>
		<g>
			<defs>
				<rect id="SVGID_67_" x="-450.5" y="-317.5" width="2000" height="2000"/>
			</defs>
			<clipPath id="SVGID_68_">
				<use xlink:href="#SVGID_67_"  style="overflow:visible;"/>
			</clipPath>
			<g class="st36">
				<line class="st3" x1="1315.3" y1="2740.4" x2="-1615.3" y2="1048.4"/>
			</g>
		</g>
		<g>
			<defs>
				<rect id="SVGID_69_" x="-450.5" y="-317.5" width="2000" height="2000"/>
			</defs>
			<clipPath id="SVGID_70_">
				<use xlink:href="#SVGID_69_"  style="overflow:visible;"/>
			</clipPath>
			<g class="st37">
				<line class="st3" x1="1365.3" y1="2653.8" x2="-1565.3" y2="961.8"/>
			</g>
		</g>
		<g>
			<defs>
				<rect id="SVGID_71_" x="-450.5" y="-317.5" width="2000" height="2000"/>
			</defs>
			<clipPath id="SVGID_72_">
				<use xlink:href="#SVGID_71_"  style="overflow:visible;"/>
			</clipPath>
			<g class="st38">
				<line class="st3" x1="1415.3" y1="2567.2" x2="-1515.3" y2="875.2"/>
			</g>
		</g>
		<g>
			<defs>
				<rect id="SVGID_73_" x="-450.5" y="-317.5" width="2000" height="2000"/>
			</defs>
			<clipPath id="SVGID_74_">
				<use xlink:href="#SVGID_73_"  style="overflow:visible;"/>
			</clipPath>
			<g class="st39">
				<line class="st3" x1="1465.3" y1="2480.6" x2="-1465.3" y2="788.6"/>
			</g>
		</g>
		<g>
			<defs>
				<rect id="SVGID_75_" x="-450.5" y="-317.5" width="2000" height="2000"/>
			</defs>
			<clipPath id="SVGID_76_">
				<use xlink:href="#SVGID_75_"  style="overflow:visible;"/>
			</clipPath>
			<g class="st40">
				<line class="st3" x1="1515.3" y1="2394" x2="-1415.3" y2="702"/>
			</g>
		</g>
		<g>
			<defs>
				<rect id="SVGID_77_" x="-450.5" y="-317.5" width="2000" height="2000"/>
			</defs>
			<clipPath id="SVGID_78_">
				<use xlink:href="#SVGID_77_"  style="overflow:visible;"/>
			</clipPath>
			<g class="st41">
				<line class="st3" x1="1565.3" y1="2307.4" x2="-1365.3" y2="615.4"/>
			</g>
		</g>
		<g>
			<defs>
				<rect id="SVGID_79_" x="-450.5" y="-317.5" width="2000" height="2000"/>
			</defs>
			<clipPath id="SVGID_80_">
				<use xlink:href="#SVGID_79_"  style="overflow:visible;"/>
			</clipPath>
			<g class="st42">
				<line class="st3" x1="1615.3" y1="2220.8" x2="-1315.3" y2="528.8"/>
			</g>
		</g>
		<g>
			<defs>
				<rect id="SVGID_81_" x="-450.5" y="-317.5" width="2000" height="2000"/>
			</defs>
			<clipPath id="SVGID_82_">
				<use xlink:href="#SVGID_81_"  style="overflow:visible;"/>
			</clipPath>
			<g class="st43">
				<line class="st3" x1="1665.3" y1="2134.2" x2="-1265.3" y2="442.2"/>
			</g>
		</g>
		<g>
			<defs>
				<rect id="SVGID_83_" x="-450.5" y="-317.5" width="2000" height="2000"/>
			</defs>
			<clipPath id="SVGID_84_">
				<use xlink:href="#SVGID_83_"  style="overflow:visible;"/>
			</clipPath>
			<g class="st44">
				<line class="st3" x1="1715.3" y1="2047.6" x2="-1215.3" y2="355.6"/>
			</g>
		</g>
		<g>
			<defs>
				<rect id="SVGID_85_" x="-450.5" y="-317.5" width="2000" height="2000"/>
			</defs>
			<clipPath id="SVGID_86_">
				<use xlink:href="#SVGID_85_"  style="overflow:visible;"/>
			</clipPath>
			<g class="st45">
				<line class="st3" x1="1765.3" y1="1961" x2="-1165.3" y2="269"/>
			</g>
		</g>
		<g>
			<defs>
				<rect id="SVGID_87_" x="-450.5" y="-317.5" width="2000" height="2000"/>
			</defs>
			<clipPath id="SVGID_88_">
				<use xlink:href="#SVGID_87_"  style="overflow:visible;"/>
			</clipPath>
			<g class="st46">
				<line class="st3" x1="1815.3" y1="1874.4" x2="-1115.3" y2="182.4"/>
			</g>
		</g>
		<g>
			<defs>
				<rect id="SVGID_89_" x="-450.5" y="-317.5" width="2000" height="2000"/>
			</defs>
			<clipPath id="SVGID_90_">
				<use xlink:href="#SVGID_89_"  style="overflow:visible;"/>
			</clipPath>
			<g class="st47">
				<line class="st3" x1="1865.3" y1="1787.8" x2="-1065.3" y2="95.8"/>
			</g>
		</g>
		<g>
			<defs>
				<rect id="SVGID_91_" x="-450.5" y="-317.5" width="2000" height="2000"/>
			</defs>
			<clipPath id="SVGID_92_">
				<use xlink:href="#SVGID_91_"  style="overflow:visible;"/>
			</clipPath>
			<g class="st48">
				<line class="st3" x1="1915.3" y1="1701.2" x2="-1015.3" y2="9.2"/>
			</g>
		</g>
		<g>
			<defs>
				<rect id="SVGID_93_" x="-450.5" y="-317.5" width="2000" height="2000"/>
			</defs>
			<clipPath id="SVGID_94_">
				<use xlink:href="#SVGID_93_"  style="overflow:visible;"/>
			</clipPath>
			<g class="st49">
				<line class="st3" x1="1965.3" y1="1614.6" x2="-965.3" y2="-77.4"/>
			</g>
		</g>
		<g>
			<defs>
				<rect id="SVGID_95_" x="-450.5" y="-317.5" width="2000" height="2000"/>
			</defs>
			<clipPath id="SVGID_96_">
				<use xlink:href="#SVGID_95_"  style="overflow:visible;"/>
			</clipPath>
			<g class="st50">
				<line class="st3" x1="2015.3" y1="1528" x2="-915.3" y2="-164"/>
			</g>
		</g>
		<g>
			<defs>
				<rect id="SVGID_97_" x="-450.5" y="-317.5" width="2000" height="2000"/>
			</defs>
			<clipPath id="SVGID_98_">
				<use xlink:href="#SVGID_97_"  style="overflow:visible;"/>
			</clipPath>
			<g class="st51">
				<line class="st3" x1="2065.3" y1="1441.4" x2="-865.3" y2="-250.6"/>
			</g>
		</g>
		<g>
			<defs>
				<rect id="SVGID_99_" x="-450.5" y="-317.5" width="2000" height="2000"/>
			</defs>
			<clipPath id="SVGID_100_">
				<use xlink:href="#SVGID_99_"  style="overflow:visible;"/>
			</clipPath>
			<g class="st52">
				<line class="st3" x1="2115.3" y1="1354.8" x2="-815.3" y2="-337.2"/>
			</g>
		</g>
		<g>
			<defs>
				<rect id="SVGID_101_" x="-450.5" y="-317.5" width="2000" height="2000"/>
			</defs>
			<clipPath id="SVGID_102_">
				<use xlink:href="#SVGID_101_"  style="overflow:visible;"/>
			</clipPath>
			<g class="st53">
				<line class="st3" x1="2165.3" y1="1268.2" x2="-765.3" y2="-423.8"/>
			</g>
		</g>
		<g>
			<defs>
				<rect id="SVGID_103_" x="-450.5" y="-317.5" width="2000" height="2000"/>
			</defs>
			<clipPath id="SVGID_104_">
				<use xlink:href="#SVGID_103_"  style="overflow:visible;"/>
			</clipPath>
			<g class="st54">
				<line class="st3" x1="2215.3" y1="1181.6" x2="-715.3" y2="-510.4"/>
			</g>
		</g>
		<g>
			<defs>
				<rect id="SVGID_105_" x="-450.5" y="-317.5" width="2000" height="2000"/>
			</defs>
			<clipPath id="SVGID_106_">
				<use xlink:href="#SVGID_105_"  style="overflow:visible;"/>
			</clipPath>
			<g class="st55">
				<line class="st3" x1="2265.3" y1="1095" x2="-665.3" y2="-597"/>
			</g>
		</g>
		<g>
			<defs>
				<rect id="SVGID_107_" x="-450.5" y="-317.5" width="2000" height="2000"/>
			</defs>
			<clipPath id="SVGID_108_">
				<use xlink:href="#SVGID_107_"  style="overflow:visible;"/>
			</clipPath>
			<g class="st56">
				<line class="st3" x1="2315.3" y1="1008.4" x2="-615.3" y2="-683.6"/>
			</g>
		</g>
		<g>
			<defs>
				<rect id="SVGID_109_" x="-450.5" y="-317.5" width="2000" height="2000"/>
			</defs>
			<clipPath id="SVGID_110_">
				<use xlink:href="#SVGID_109_"  style="overflow:visible;"/>
			</clipPath>
			<g class="st57">
				<line class="st3" x1="2365.3" y1="921.8" x2="-565.3" y2="-770.2"/>
			</g>
		</g>
		<g>
			<defs>
				<rect id="SVGID_111_" x="-450.5" y="-317.5" width="2000" height="2000"/>
			</defs>
			<clipPath id="SVGID_112_">
				<use xlink:href="#SVGID_111_"  style="overflow:visible;"/>
			</clipPath>
			<g class="st58">
				<line class="st3" x1="2415.3" y1="835.2" x2="-515.3" y2="-856.8"/>
			</g>
		</g>
		<g>
			<defs>
				<rect id="SVGID_113_" x="-450.5" y="-317.5" width="2000" height="2000"/>
			</defs>
			<clipPath id="SVGID_114_">
				<use xlink:href="#SVGID_113_"  style="overflow:visible;"/>
			</clipPath>
			<g class="st59">
				<line class="st3" x1="2465.3" y1="748.6" x2="-465.3" y2="-943.4"/>
			</g>
		</g>
		<g>
			<defs>
				<rect id="SVGID_115_" x="-450.5" y="-317.5" width="2000" height="2000"/>
			</defs>
			<clipPath id="SVGID_116_">
				<use xlink:href="#SVGID_115_"  style="overflow:visible;"/>
			</clipPath>
			<g class="st60">
				<line class="st3" x1="2515.3" y1="662" x2="-415.3" y2="-1030"/>
			</g>
		</g>
		<g>
			<defs>
				<rect id="SVGID_117_" x="-450.5" y="-317.5" width="2000" height="2000"/>
			</defs>
			<clipPath id="SVGID_118_">
				<use xlink:href="#SVGID_117_"  style="overflow:visible;"/>
			</clipPath>
			<g class="st61">
				<line class="st3" x1="2565.3" y1="575.4" x2="-365.3" y2="-1116.6"/>
			</g>
		</g>
		<g>
			<defs>
				<rect id="SVGID_119_" x="-450.5" y="-317.5" width="2000" height="2000"/>
			</defs>
			<clipPath id="SVGID_120_">
				<use xlink:href="#SVGID_119_"  style="overflow:visible;"/>
			</clipPath>
			<g class="st62">
				<line class="st3" x1="2615.3" y1="488.8" x2="-315.3" y2="-1203.2"/>
			</g>
		</g>
		<g>
			<defs>
				<rect id="SVGID_121_" x="-450.5" y="-317.5" width="2000" height="2000"/>
			</defs>
			<clipPath id="SVGID_122_">
				<use xlink:href="#SVGID_121_"  style="overflow:visible;"/>
			</clipPath>
			<g class="st63">
				<line class="st3" x1="2665.3" y1="402.2" x2="-265.3" y2="-1289.8"/>
			</g>
		</g>
		<g>
			<defs>
				<rect id="SVGID_123_" x="-450.5" y="-317.5" width="2000" height="2000"/>
			</defs>
			<clipPath id="SVGID_124_">
				<use xlink:href="#SVGID_123_"  style="overflow:visible;"/>
			</clipPath>
			<g class="st64">
				<line class="st3" x1="2715.3" y1="315.6" x2="-215.3" y2="-1376.4"/>
			</g>
		</g>
		<g>
			<defs>
				<rect id="SVGID_125_" x="-450.5" y="-317.5" width="2000" height="2000"/>
			</defs>
			<clipPath id="SVGID_126_">
				<use xlink:href="#SVGID_125_"  style="overflow:visible;"/>
			</clipPath>
			<g class="st65">
				<line class="st3" x1="2765.3" y1="229" x2="-165.3" y2="-1463"/>
			</g>
		</g>
	</g>
</g>
<g>
	<g>
		
			<linearGradient id="SVGID_127_" gradientUnits="userSpaceOnUse" x1="266.2918" y1="1413.9548" x2="257.5645" y2="-33.027" gradientTransform="matrix(1 0 0 -1 0 1370)">
			<stop  offset="0" style="stop-color:#00FFCD"/>
			<stop  offset="1" style="stop-color:#00FF3E"/>
			<stop  offset="1" style="stop-color:#00FF39"/>
			<stop  offset="1" style="stop-color:#C2FF00"/>
		</linearGradient>
		<path class="st66" d="M520.7,618.8c2.4,1.4,4.3,4.8,4.3,7.5v220.9c0,2.8-2,3.9-4.3,2.5L4.3,552.3C2,550.9,0,547.5,0,544.8V323.9
			c0-2.8,2-3.9,4.3-2.5L520.7,618.8z"/>
	</g>
	
		<linearGradient id="SVGID_128_" gradientUnits="userSpaceOnUse" x1="153" y1="678" x2="153" y2="678" gradientTransform="matrix(1 0 0 -1 0 1370)">
		<stop  offset="0" style="stop-color:#00FFCD"/>
		<stop  offset="1" style="stop-color:#00FF00"/>
		<stop  offset="1" style="stop-color:#00FF39"/>
		<stop  offset="1" style="stop-color:#C2FF00"/>
	</linearGradient>
	<path class="st67" d="M153,692"/>
	
		<linearGradient id="SVGID_129_" gradientUnits="userSpaceOnUse" x1="1511.75" y1="791.67" x2="1511.75" y2="791.67" gradientTransform="matrix(1 0 0 -1 0 1370)">
		<stop  offset="0" style="stop-color:#00FFCD"/>
		<stop  offset="1" style="stop-color:#00FF00"/>
		<stop  offset="1" style="stop-color:#00FF39"/>
		<stop  offset="1" style="stop-color:#C2FF00"/>
	</linearGradient>
	<path class="st68" d="M1511.8,578.3"/>
	
		<linearGradient id="SVGID_130_" gradientUnits="userSpaceOnUse" x1="1109.75" y1="565.67" x2="1109.75" y2="565.67" gradientTransform="matrix(1 0 0 -1 0 1370)">
		<stop  offset="0" style="stop-color:#00FFCD"/>
		<stop  offset="1" style="stop-color:#00FF00"/>
		<stop  offset="1" style="stop-color:#00FF39"/>
		<stop  offset="1" style="stop-color:#C2FF00"/>
	</linearGradient>
	<path class="st69" d="M1109.8,804.3"/>
	
		<linearGradient id="SVGID_131_" gradientUnits="userSpaceOnUse" x1="1401.29" y1="93.09" x2="1401.29" y2="93.09" gradientTransform="matrix(1 0 0 -1 0 1370)">
		<stop  offset="0" style="stop-color:#00FFCD"/>
		<stop  offset="1" style="stop-color:#00FF00"/>
		<stop  offset="1" style="stop-color:#00FF39"/>
		<stop  offset="1" style="stop-color:#C2FF00"/>
	</linearGradient>
	<path class="st70" d="M1401.3,1276.9"/>
	
		<linearGradient id="SVGID_132_" gradientUnits="userSpaceOnUse" x1="1102.29" y1="-74.91" x2="1102.29" y2="-74.91" gradientTransform="matrix(1 0 0 -1 0 1370)">
		<stop  offset="0" style="stop-color:#00FFCD"/>
		<stop  offset="1" style="stop-color:#00FF00"/>
		<stop  offset="1" style="stop-color:#00FF39"/>
		<stop  offset="1" style="stop-color:#C2FF00"/>
	</linearGradient>
	<path class="st71" d="M1102.3,1444.9"/>
	
		<linearGradient id="SVGID_133_" gradientUnits="userSpaceOnUse" x1="379.9" y1="-225" x2="379.9" y2="-225" gradientTransform="matrix(1 0 0 -1 0 1370)">
		<stop  offset="0" style="stop-color:#00FFCD"/>
		<stop  offset="1" style="stop-color:#00FF00"/>
		<stop  offset="1" style="stop-color:#00FF39"/>
		<stop  offset="1" style="stop-color:#C2FF00"/>
	</linearGradient>
	<path class="st72" d="M379.9,1595"/>
	
		<linearGradient id="SVGID_134_" gradientUnits="userSpaceOnUse" x1="77.9" y1="-55" x2="77.9" y2="-55" gradientTransform="matrix(1 0 0 -1 0 1370)">
		<stop  offset="0" style="stop-color:#00FFCD"/>
		<stop  offset="1" style="stop-color:#00FF00"/>
		<stop  offset="1" style="stop-color:#00FF39"/>
		<stop  offset="1" style="stop-color:#C2FF00"/>
	</linearGradient>
	<path class="st73" d="M77.9,1425"/>
	
		<linearGradient id="SVGID_135_" gradientUnits="userSpaceOnUse" x1="-129" y1="254" x2="-129" y2="254" gradientTransform="matrix(1 0 0 -1 0 1370)">
		<stop  offset="0" style="stop-color:#00FFCD"/>
		<stop  offset="1" style="stop-color:#00FF00"/>
		<stop  offset="1" style="stop-color:#00FF39"/>
		<stop  offset="1" style="stop-color:#C2FF00"/>
	</linearGradient>
	<path class="st74" d="M-129,1116"/>
	
		<linearGradient id="SVGID_136_" gradientUnits="userSpaceOnUse" x1="-129" y1="489" x2="-129" y2="489" gradientTransform="matrix(1 0 0 -1 0 1370)">
		<stop  offset="0" style="stop-color:#00FFCD"/>
		<stop  offset="1" style="stop-color:#00FF00"/>
		<stop  offset="1" style="stop-color:#00FF39"/>
		<stop  offset="1" style="stop-color:#C2FF00"/>
	</linearGradient>
	<path class="st75" d="M-129,881"/>
	
		<linearGradient id="SVGID_137_" gradientUnits="userSpaceOnUse" x1="1492" y1="194" x2="1492" y2="194" gradientTransform="matrix(1 0 0 -1 0 1370)">
		<stop  offset="0" style="stop-color:#00FFCD"/>
		<stop  offset="1" style="stop-color:#00FF00"/>
		<stop  offset="1" style="stop-color:#00FF39"/>
		<stop  offset="1" style="stop-color:#C2FF00"/>
	</linearGradient>
	<path class="st76" d="M1492,1176"/>
	
		<linearGradient id="SVGID_138_" gradientUnits="userSpaceOnUse" x1="1492" y1="429" x2="1492" y2="429" gradientTransform="matrix(1 0 0 -1 0 1370)">
		<stop  offset="0" style="stop-color:#00FFCD"/>
		<stop  offset="1" style="stop-color:#00FF00"/>
		<stop  offset="1" style="stop-color:#00FF39"/>
		<stop  offset="1" style="stop-color:#C2FF00"/>
	</linearGradient>
	<path class="st77" d="M1492,941"/>
	
		<linearGradient id="SVGID_139_" gradientUnits="userSpaceOnUse" x1="1273" y1="246" x2="1273" y2="246" gradientTransform="matrix(1 0 0 -1 0 1370)">
		<stop  offset="0" style="stop-color:#00FFCD"/>
		<stop  offset="1" style="stop-color:#00FF00"/>
		<stop  offset="1" style="stop-color:#00FF39"/>
		<stop  offset="1" style="stop-color:#C2FF00"/>
	</linearGradient>
	<path class="st78" d="M1273,1124"/>
	
		<linearGradient id="SVGID_140_" gradientUnits="userSpaceOnUse" x1="1276" y1="592" x2="1276" y2="592" gradientTransform="matrix(1 0 0 -1 0 1370)">
		<stop  offset="0" style="stop-color:#00FFCD"/>
		<stop  offset="1" style="stop-color:#00FF00"/>
		<stop  offset="1" style="stop-color:#00FF39"/>
		<stop  offset="1" style="stop-color:#C2FF00"/>
	</linearGradient>
	<path class="st79" d="M1276,778"/>
	<g>
		
			<linearGradient id="SVGID_141_" gradientUnits="userSpaceOnUse" x1="525" y1="343.55" x2="525" y2="343.55" gradientTransform="matrix(1 0 0 -1 0 1370)">
			<stop  offset="0" style="stop-color:#00FFCD"/>
			<stop  offset="1" style="stop-color:#00FF00"/>
			<stop  offset="1" style="stop-color:#00FF39"/>
			<stop  offset="1" style="stop-color:#C2FF00"/>
		</linearGradient>
		<path class="st80" d="M525,1026.4L525,1026.4L525,1026.4z"/>
		
			<linearGradient id="SVGID_142_" gradientUnits="userSpaceOnUse" x1="293.8276" y1="1413.7887" x2="285.1003" y2="-33.1931" gradientTransform="matrix(1 0 0 -1 0 1370)">
			<stop  offset="0" style="stop-color:#00FFCD"/>
			<stop  offset="1" style="stop-color:#00FF00"/>
			<stop  offset="1" style="stop-color:#00FF39"/>
			<stop  offset="1" style="stop-color:#C2FF00"/>
		</linearGradient>
		<path class="st81" d="M150,982V817.6c0-3.8,4.1-6.3,7.5-4.3l360,206.5c3.3,1.9,7.5-0.5,7.5-4.3V912.9c0-1.8-1-3.4-2.5-4.3
			l-465-268.7c-3.3-1.9-7.5,0.5-7.5,4.3V983c0.5,71,38.5,137,100,172.5l367.5,212c3.3,1.9,7.5-0.5,7.5-4.3v-105.3
			c0-1.8-1-3.4-2.5-4.3l-322.2-184.8C169.2,1050.9,150,1017.8,150,982z"/>
	</g>
	<g>
		
			<linearGradient id="SVGID_143_" gradientUnits="userSpaceOnUse" x1="680.3191" y1="1411.4576" x2="671.5918" y2="-35.5242" gradientTransform="matrix(1 0 0 -1 0 1370)">
			<stop  offset="0" style="stop-color:#00FFCD"/>
			<stop  offset="1" style="stop-color:#00FF00"/>
			<stop  offset="1" style="stop-color:#00FF39"/>
			<stop  offset="1" style="stop-color:#C2FF00"/>
		</linearGradient>
		<path class="st82" d="M579.9,289.3c-2.7,0.4-4.8-1.5-4.5-4.2c0,0,3.3-41.7,6.2-59.9c3.1-19.6,7.2-35.8,12.5-49.9
			c11.5-30.4,28.8-51.6,55.4-79.1c43.2-44.6,108.7-51,126.8-52c2.7-0.1,5,1.9,5.2,4.5c1.5,15.7,2.4,40.6-3.3,69
			c-2.2,10.9-5.3,22.2-9.8,33.8c-4.2,11-14,28.8-14,28.8c-1.3,2.4-3.6,6.3-5.1,8.6c0,0-15.4,24.3-43.3,47.2
			c-23.2,19.1-47.5,31.5-69.8,39.6C612.1,284.4,579.9,289.3,579.9,289.3z"/>
	</g>
	<g>
		
			<linearGradient id="SVGID_144_" gradientUnits="userSpaceOnUse" x1="378.659" y1="1413.2771" x2="369.9318" y2="-33.7047" gradientTransform="matrix(1 0 0 -1 0 1370)">
			<stop  offset="0" style="stop-color:#00FFCD"/>
			<stop  offset="1" style="stop-color:#00FF00"/>
			<stop  offset="1" style="stop-color:#00FF39"/>
			<stop  offset="1" style="stop-color:#C2FF00"/>
		</linearGradient>
		<path class="st83" d="M520,289.7c2.7,0.2,5.3-1.9,5.6-4.6c0,0,15.9-124.4-53.6-199c-34-36.5-76.4-52.8-103-63
			c-28-10.7-54.5-16.8-78.1-20C266-0.4,233-0.1,233-0.1c-2.8,0-5,2.3-5,5.1c0,0,0.3,38.6,7.7,70.7c7.6,32.7,22.3,70,50.3,104.3
			c28.3,34.6,59.7,53.3,78,64c35.2,20.6,69.8,32,99.4,38.4C488.1,287.7,520,289.7,520,289.7z"/>
	</g>
	<g>
		<g>
			<g>
				
					<linearGradient id="SVGID_145_" gradientUnits="userSpaceOnUse" x1="559.4684" y1="1412.1865" x2="550.7411" y2="-34.7953" gradientTransform="matrix(1 0 0 -1 0 1370)">
					<stop  offset="0" style="stop-color:#00FFCD"/>
					<stop  offset="1" style="stop-color:#00FF00"/>
					<stop  offset="1" style="stop-color:#00FF39"/>
					<stop  offset="1" style="stop-color:#C2FF00"/>
				</linearGradient>
				<path class="st84" d="M525,93c6.9,12.3,13.1,24.2,17,34c7.8,19.6,10,32,14,32c5,0,13.5-36.3,46-73c14-15.9,34.7-29,34.7-29
					c2.3-1.5,2.3-3.8-0.1-5.2L554.3,4.5c-2.4-1.4-6.3-1.4-8.7,0l-64.3,37c-2.4,1.4-2.5,3.8-0.3,5.4C481.1,46.9,511.2,68.3,525,93z"
					/>
			</g>
			<g>
				
					<linearGradient id="SVGID_146_" gradientUnits="userSpaceOnUse" x1="552.0037" y1="1412.2316" x2="543.2765" y2="-34.7502" gradientTransform="matrix(1 0 0 -1 0 1370)">
					<stop  offset="0" style="stop-color:#00FFCD"/>
					<stop  offset="1" style="stop-color:#00FF00"/>
					<stop  offset="1" style="stop-color:#00FF39"/>
					<stop  offset="1" style="stop-color:#C2FF00"/>
				</linearGradient>
				<path class="st85" d="M816.8,155.7c-2.4-1.4-5.2-0.4-6.2,2.1c0,0-27.3,66.1-69.6,106.2c-12.1,11.5-37,32.9-74,50
					c-8.8,4.1-52,23.5-113,26c-51.1,2.1-89.3-8.8-117-17c-21.1-6.2-63.6-20.5-111-51c-42.8-27.5-92.7-82-92.7-82
					c-1.9-2-5.3-2.6-7.7-1.2L54.3,287.5c-2.4,1.4-2.4,3.6,0,5l491.3,283c2.4,1.4,6.3,1.4,8.7,0l491.3-283c2.4-1.4,2.4-3.6,0-5
					L816.8,155.7z"/>
			</g>
		</g>
	</g>
</g>
</svg>
